<svg width="962" height="962" viewBox="0 0 962 962" fill="none" xmlns="http://www.w3.org/2000/svg">
<path fill-rule="evenodd" clip-rule="evenodd" d="M651.975 752.728C689.868 728.836 722.412 697.236 747.41 660.129L744.688 662.853C744.688 662.853 708.722 631.611 682.236 635.014C651.118 639.012 629.426 660.704 625.428 691.823C622.443 715.051 646.113 745.577 651.975 752.728ZM802 480.785C801.883 303.6 658.212 160 481 160C303.716 160 160 303.717 160 481.001C160 649.681 290.105 787.974 455.437 801C409.912 716.652 361.516 593.708 409.483 513.497C436.248 468.736 458.937 445.47 503.911 419.066C588.809 369.226 720.107 431.081 802 480.785ZM610.002 583.096C609.45 603.449 593.489 619.41 573.136 619.966C545.634 620.714 525.843 574.708 545.294 555.257C564.748 535.804 610.751 555.597 610.002 583.096Z" fill="#777777"/>
</svg>
