<svg width="96" height="118" viewBox="0 0 96 118" fill="none" xmlns="http://www.w3.org/2000/svg">
<path d="M9.18409 78.4111C4.78409 97.2111 21.0174 99.5778 29.6841 98.4111C48.8841 126.411 71.6841 112.411 80.6841 101.911L82.6841 74.4111C87.1841 70.4111 111.184 15.9111 60.1841 4.41112C19.3841 -4.78888 9.18409 33.2445 9.18409 53.4111C-2.0159 67.4111 4.51743 75.9111 9.18409 78.4111Z" fill="white" stroke="white" stroke-width="6"/>
<path d="M55.6841 27.9111C56.1841 30.0778 55.4841 34.8111 48.6841 36.4111" stroke="#5853BF" stroke-width="4" stroke-linecap="round"/>
<path d="M45.184 32.9111C62.1841 52.9111 9.68406 58.4111 26.684 28.9111" stroke="#5853BF" stroke-width="4" stroke-linecap="round"/>
<path d="M55.1841 53.4111C52.5174 54.2445 45.8841 54.8111 40.6841 50.4111" stroke="#5853BF" stroke-width="4" stroke-linecap="round"/>
<path d="M36.1841 32.4111C27.6841 32.4111 24.6841 14.4111 40.6841 17.9111" stroke="#5853BF" stroke-width="4" stroke-linecap="round"/>
<path d="M59.9982 19.3235C68.5685 25.2932 63.1622 21.9571 59.1841 19.4111C59.4486 19.3763 59.7206 19.3469 59.9982 19.3235Z" fill="white"/>
<path d="M41.6841 24.4111C43.0174 19.4111 48.2841 11.2111 58.6841 18.4111C69.0841 25.6111 63.3507 22.0778 59.1841 19.4111C65.5174 18.5778 76.0841 20.8111 67.6841 36.4111C62.1841 39.5778 52.1841 47.2111 56.1841 52.4111C60.1841 57.6111 64.5174 57.2445 66.1841 56.4111C69.1841 63.4111 75.8841 71.5111 78.6841 47.9111" stroke="#5853BF" stroke-width="4" stroke-linecap="round"/>
<path d="M72.6841 27.9111C80.1841 27.9111 89.1841 45.9111 70.1841 47.9111" stroke="#5853BF" stroke-width="4" stroke-linecap="round"/>
</svg>
