<svg width="443" height="273" viewBox="0 0 443 273" fill="none" xmlns="http://www.w3.org/2000/svg">
<g id="Group 1">
<g id="Program">
<rect id="Rectangle 1" y="18" width="350" height="255" rx="10" fill="#282828"/>
<path id="Rectangle 2" d="M0 28C0 22.4772 4.47715 18 10 18H340C345.523 18 350 22.4772 350 28V49H0V28Z" fill="#5A5A5A"/>
<circle id="Ellipse 1" cx="14.5" cy="33.5" r="4.5" fill="#DA3C3C"/>
<circle id="Ellipse 2" cx="28.5" cy="33.5" r="4.5" fill="#DAB03C"/>
<circle id="Ellipse 3" cx="42.5" cy="33.5" r="4.5" fill="#54B631"/>
</g>
<g id="Notification 1">
<rect id="Rectangle 3" x="257" width="186" height="39" rx="19.5" fill="#EAEAEA"/>
<path id="John Doe" d="M309.19 9.45455H310.558V14.0185C310.558 14.4403 310.463 14.8068 310.273 15.1179C310.086 15.429 309.825 15.6687 309.49 15.837C309.156 16.0053 308.767 16.0895 308.324 16.0895C307.929 16.0895 307.571 16.0202 307.25 15.8817C306.93 15.7411 306.676 15.5281 306.489 15.2425C306.301 14.9549 306.209 14.5937 306.211 14.1591H307.588C307.593 14.3317 307.628 14.4798 307.694 14.6033C307.762 14.7248 307.855 14.8185 307.972 14.8846C308.091 14.9485 308.232 14.9805 308.394 14.9805C308.564 14.9805 308.708 14.9442 308.825 14.8718C308.945 14.7972 309.035 14.6886 309.097 14.5458C309.159 14.4031 309.19 14.2273 309.19 14.0185V9.45455ZM313.894 16.0959C313.398 16.0959 312.968 15.9904 312.606 15.7795C312.246 15.5664 311.968 15.2702 311.772 14.891C311.576 14.5096 311.478 14.0675 311.478 13.5646C311.478 13.0575 311.576 12.6143 311.772 12.2351C311.968 11.8537 312.246 11.5575 312.606 11.3466C312.968 11.1335 313.398 11.027 313.894 11.027C314.391 11.027 314.819 11.1335 315.179 11.3466C315.541 11.5575 315.82 11.8537 316.016 12.2351C316.212 12.6143 316.31 13.0575 316.31 13.5646C316.31 14.0675 316.212 14.5096 316.016 14.891C315.82 15.2702 315.541 15.5664 315.179 15.7795C314.819 15.9904 314.391 16.0959 313.894 16.0959ZM313.901 15.0412C314.126 15.0412 314.315 14.9773 314.466 14.8494C314.618 14.7195 314.732 14.5426 314.808 14.3189C314.887 14.0952 314.926 13.8406 314.926 13.555C314.926 13.2695 314.887 13.0149 314.808 12.7912C314.732 12.5675 314.618 12.3906 314.466 12.2607C314.315 12.1307 314.126 12.0657 313.901 12.0657C313.673 12.0657 313.481 12.1307 313.325 12.2607C313.172 12.3906 313.056 12.5675 312.977 12.7912C312.9 13.0149 312.862 13.2695 312.862 13.555C312.862 13.8406 312.9 14.0952 312.977 14.3189C313.056 14.5426 313.172 14.7195 313.325 14.8494C313.481 14.9773 313.673 15.0412 313.901 15.0412ZM318.557 13.1619V16H317.196V9.45455H318.519V11.957H318.576C318.687 11.6673 318.866 11.4403 319.113 11.2763C319.36 11.1101 319.67 11.027 320.043 11.027C320.384 11.027 320.681 11.1016 320.935 11.2507C321.191 11.3977 321.389 11.6097 321.529 11.8867C321.672 12.1616 321.743 12.4908 321.74 12.8743V16H320.379V13.1172C320.381 12.8146 320.304 12.5792 320.149 12.4109C319.995 12.2425 319.78 12.1584 319.503 12.1584C319.318 12.1584 319.154 12.1978 319.011 12.2766C318.87 12.3555 318.76 12.4705 318.679 12.6218C318.6 12.771 318.559 12.951 318.557 13.1619ZM324.173 13.1619V16H322.812V11.0909H324.109V11.957H324.167C324.276 11.6715 324.458 11.4457 324.714 11.2795C324.969 11.1112 325.279 11.027 325.644 11.027C325.984 11.027 326.282 11.1016 326.535 11.2507C326.789 11.3999 326.986 11.6129 327.127 11.8899C327.267 12.1648 327.337 12.4929 327.337 12.8743V16H325.976V13.1172C325.978 12.8168 325.901 12.5824 325.746 12.4141C325.59 12.2436 325.376 12.1584 325.103 12.1584C324.92 12.1584 324.758 12.1978 324.618 12.2766C324.479 12.3555 324.37 12.4705 324.292 12.6218C324.215 12.771 324.176 12.951 324.173 13.1619ZM332.839 16H330.519V9.45455H332.859C333.517 9.45455 334.084 9.58558 334.559 9.84766C335.034 10.1076 335.399 10.4815 335.655 10.9695C335.913 11.4574 336.042 12.0412 336.042 12.7209C336.042 13.4027 335.913 13.9886 335.655 14.4787C335.399 14.9687 335.032 15.3448 334.552 15.6069C334.075 15.869 333.504 16 332.839 16ZM331.903 14.8143H332.782C333.191 14.8143 333.535 14.7418 333.814 14.5969C334.095 14.4499 334.306 14.223 334.447 13.9162C334.59 13.6072 334.661 13.2088 334.661 12.7209C334.661 12.2372 334.59 11.842 334.447 11.5352C334.306 11.2283 334.097 11.0025 333.817 10.8576C333.538 10.7127 333.194 10.6403 332.785 10.6403H331.903V14.8143ZM339.259 16.0959C338.763 16.0959 338.334 15.9904 337.971 15.7795C337.611 15.5664 337.333 15.2702 337.137 14.891C336.941 14.5096 336.843 14.0675 336.843 13.5646C336.843 13.0575 336.941 12.6143 337.137 12.2351C337.333 11.8537 337.611 11.5575 337.971 11.3466C338.334 11.1335 338.763 11.027 339.259 11.027C339.756 11.027 340.184 11.1335 340.544 11.3466C340.906 11.5575 341.186 11.8537 341.382 12.2351C341.578 12.6143 341.676 13.0575 341.676 13.5646C341.676 14.0675 341.578 14.5096 341.382 14.891C341.186 15.2702 340.906 15.5664 340.544 15.7795C340.184 15.9904 339.756 16.0959 339.259 16.0959ZM339.266 15.0412C339.492 15.0412 339.68 14.9773 339.831 14.8494C339.983 14.7195 340.097 14.5426 340.173 14.3189C340.252 14.0952 340.292 13.8406 340.292 13.555C340.292 13.2695 340.252 13.0149 340.173 12.7912C340.097 12.5675 339.983 12.3906 339.831 12.2607C339.68 12.1307 339.492 12.0657 339.266 12.0657C339.038 12.0657 338.846 12.1307 338.691 12.2607C338.537 12.3906 338.421 12.5675 338.342 12.7912C338.265 13.0149 338.227 13.2695 338.227 13.555C338.227 13.8406 338.265 14.0952 338.342 14.3189C338.421 14.5426 338.537 14.7195 338.691 14.8494C338.846 14.9773 339.038 15.0412 339.266 15.0412ZM344.798 16.0959C344.293 16.0959 343.858 15.9936 343.494 15.7891C343.132 15.5824 342.853 15.2905 342.657 14.9134C342.461 14.5341 342.363 14.0856 342.363 13.5678C342.363 13.0629 342.461 12.6197 342.657 12.2383C342.853 11.8569 343.129 11.5597 343.485 11.3466C343.843 11.1335 344.262 11.027 344.744 11.027C345.068 11.027 345.369 11.0792 345.648 11.1836C345.93 11.2859 346.175 11.4403 346.383 11.647C346.594 11.8537 346.758 12.1136 346.876 12.4268C346.993 12.7379 347.051 13.1023 347.051 13.5199V13.8938H342.906V13.0501H345.77C345.77 12.854 345.727 12.6804 345.642 12.5291C345.557 12.3778 345.438 12.2596 345.287 12.1744C345.138 12.087 344.964 12.0433 344.766 12.0433C344.559 12.0433 344.376 12.0913 344.216 12.1871C344.059 12.2809 343.935 12.4077 343.846 12.5675C343.756 12.7251 343.71 12.9009 343.708 13.0948V13.897C343.708 14.1399 343.753 14.3498 343.843 14.5266C343.934 14.7035 344.063 14.8398 344.229 14.9357C344.395 15.0316 344.593 15.0795 344.82 15.0795C344.972 15.0795 345.11 15.0582 345.236 15.0156C345.362 14.973 345.469 14.9091 345.559 14.8239C345.648 14.7386 345.716 14.6342 345.763 14.5107L347.023 14.5938C346.959 14.8963 346.828 15.1605 346.629 15.3864C346.433 15.6101 346.18 15.7848 345.869 15.9105C345.56 16.0341 345.203 16.0959 344.798 16.0959Z" fill="black"/>
<path id="Hey, got a minute?" d="M306.793 29V22.4545H307.585V25.3693H311.075V22.4545H311.868V29H311.075V26.0724H307.585V29H306.793ZM315.411 29.1023C314.938 29.1023 314.53 28.9979 314.187 28.7891C313.846 28.5781 313.583 28.2841 313.397 27.907C313.214 27.5277 313.122 27.0866 313.122 26.5838C313.122 26.081 313.214 25.6378 313.397 25.2543C313.583 24.8686 313.84 24.5682 314.171 24.353C314.503 24.1357 314.891 24.027 315.334 24.027C315.59 24.027 315.842 24.0696 316.091 24.1548C316.341 24.2401 316.568 24.3786 316.772 24.5703C316.977 24.7599 317.14 25.0114 317.261 25.3246C317.383 25.6378 317.443 26.0234 317.443 26.4815V26.8011H313.659V26.1491H316.676C316.676 25.8722 316.621 25.625 316.51 25.4077C316.401 25.1903 316.246 25.0188 316.044 24.8931C315.843 24.7674 315.607 24.7045 315.334 24.7045C315.034 24.7045 314.774 24.7791 314.554 24.9283C314.337 25.0753 314.17 25.267 314.052 25.5036C313.935 25.7401 313.877 25.9936 313.877 26.2642V26.6989C313.877 27.0696 313.941 27.3839 314.068 27.6417C314.198 27.8974 314.378 28.0923 314.608 28.2266C314.839 28.3587 315.106 28.4247 315.411 28.4247C315.609 28.4247 315.788 28.397 315.948 28.3416C316.11 28.2841 316.249 28.1989 316.366 28.0859C316.483 27.9709 316.574 27.8281 316.638 27.6577L317.367 27.8622C317.29 28.1094 317.161 28.3267 316.98 28.5142C316.799 28.6996 316.575 28.8445 316.309 28.9489C316.042 29.0511 315.743 29.1023 315.411 29.1023ZM318.927 30.8409C318.799 30.8409 318.685 30.8303 318.585 30.8089C318.485 30.7898 318.416 30.7706 318.377 30.7514L318.569 30.0866C318.752 30.1335 318.914 30.1506 319.055 30.1378C319.196 30.125 319.32 30.0621 319.429 29.9492C319.54 29.8384 319.641 29.6584 319.733 29.4091L319.873 29.0256L318.058 24.0909H318.876L320.231 28.0028H320.282L321.637 24.0909H322.456L320.372 29.7159C320.278 29.9695 320.162 30.1793 320.023 30.3455C319.885 30.5138 319.724 30.6385 319.541 30.7195C319.36 30.8004 319.155 30.8409 318.927 30.8409ZM324.268 28.1051L324.217 28.4503C324.181 28.6932 324.126 28.9531 324.051 29.2301C323.979 29.5071 323.903 29.7681 323.824 30.0131C323.745 30.2582 323.68 30.4531 323.629 30.598H323.054C323.082 30.4616 323.118 30.2816 323.163 30.0579C323.207 29.8342 323.252 29.5838 323.297 29.3068C323.344 29.032 323.382 28.7507 323.412 28.4631L323.45 28.1051H324.268ZM330.179 30.9432C329.814 30.9432 329.501 30.8963 329.239 30.8026C328.977 30.7109 328.759 30.5895 328.584 30.4382C328.411 30.2891 328.274 30.1293 328.172 29.9588L328.772 29.5369C328.841 29.6264 328.927 29.7287 329.031 29.8438C329.136 29.9609 329.278 30.0621 329.46 30.1474C329.643 30.2347 329.883 30.2784 330.179 30.2784C330.575 30.2784 330.902 30.1825 331.16 29.9908C331.418 29.799 331.547 29.4986 331.547 29.0895V28.0923H331.483C331.427 28.1818 331.348 28.2926 331.246 28.4247C331.146 28.5547 331.001 28.6708 330.812 28.7731C330.624 28.8732 330.37 28.9233 330.051 28.9233C329.655 28.9233 329.299 28.8295 328.983 28.642C328.67 28.4545 328.422 28.1818 328.239 27.8239C328.058 27.4659 327.967 27.0312 327.967 26.5199C327.967 26.017 328.055 25.5792 328.232 25.2063C328.409 24.8313 328.655 24.5415 328.971 24.337C329.286 24.1303 329.65 24.027 330.064 24.027C330.383 24.027 330.637 24.0803 330.824 24.1868C331.014 24.2912 331.159 24.4105 331.259 24.5447C331.361 24.6768 331.44 24.7855 331.495 24.8707H331.572V24.0909H332.301V29.1406C332.301 29.5625 332.205 29.9055 332.013 30.1697C331.824 30.4361 331.568 30.631 331.246 30.7546C330.927 30.8803 330.571 30.9432 330.179 30.9432ZM330.153 28.2457C330.456 28.2457 330.711 28.1765 330.92 28.038C331.129 27.8995 331.288 27.7003 331.396 27.4403C331.505 27.1804 331.559 26.8693 331.559 26.5071C331.559 26.1534 331.506 25.8413 331.4 25.5707C331.293 25.3001 331.135 25.0881 330.927 24.9347C330.718 24.7812 330.46 24.7045 330.153 24.7045C329.834 24.7045 329.567 24.7855 329.354 24.9474C329.143 25.1094 328.984 25.3267 328.878 25.5994C328.774 25.8722 328.721 26.1747 328.721 26.5071C328.721 26.848 328.775 27.1495 328.881 27.4116C328.99 27.6715 329.15 27.8761 329.361 28.0252C329.574 28.1722 329.838 28.2457 330.153 28.2457ZM335.676 29.1023C335.233 29.1023 334.844 28.9968 334.509 28.7859C334.177 28.5749 333.917 28.2798 333.729 27.9006C333.544 27.5213 333.451 27.0781 333.451 26.571C333.451 26.0597 333.544 25.6133 333.729 25.2319C333.917 24.8505 334.177 24.5543 334.509 24.3434C334.844 24.1325 335.233 24.027 335.676 24.027C336.119 24.027 336.507 24.1325 336.839 24.3434C337.174 24.5543 337.434 24.8505 337.619 25.2319C337.807 25.6133 337.9 26.0597 337.9 26.571C337.9 27.0781 337.807 27.5213 337.619 27.9006C337.434 28.2798 337.174 28.5749 336.839 28.7859C336.507 28.9968 336.119 29.1023 335.676 29.1023ZM335.676 28.4247C336.013 28.4247 336.29 28.3384 336.507 28.1658C336.724 27.9933 336.885 27.7663 336.989 27.4851C337.094 27.2038 337.146 26.8991 337.146 26.571C337.146 26.2429 337.094 25.9371 336.989 25.6538C336.885 25.3704 336.724 25.1413 336.507 24.9666C336.29 24.7919 336.013 24.7045 335.676 24.7045C335.339 24.7045 335.062 24.7919 334.845 24.9666C334.628 25.1413 334.467 25.3704 334.362 25.6538C334.258 25.9371 334.206 26.2429 334.206 26.571C334.206 26.8991 334.258 27.2038 334.362 27.4851C334.467 27.7663 334.628 27.9933 334.845 28.1658C335.062 28.3384 335.339 28.4247 335.676 28.4247ZM341.187 24.0909V24.7301H338.643V24.0909H341.187ZM339.384 22.9148H340.138V27.5938C340.138 27.8068 340.169 27.9666 340.231 28.0732C340.295 28.1776 340.376 28.2479 340.474 28.2841C340.574 28.3182 340.68 28.3352 340.79 28.3352C340.873 28.3352 340.942 28.331 340.995 28.3224C341.048 28.3118 341.091 28.3033 341.123 28.2969L341.276 28.9744C341.225 28.9936 341.154 29.0128 341.062 29.032C340.97 29.0533 340.854 29.0639 340.714 29.0639C340.501 29.0639 340.292 29.0181 340.087 28.9265C339.885 28.8349 339.716 28.6953 339.582 28.5078C339.45 28.3203 339.384 28.0838 339.384 27.7983V22.9148ZM346.297 29.1151C345.986 29.1151 345.704 29.0565 345.45 28.9393C345.197 28.82 344.995 28.6484 344.846 28.4247C344.697 28.1989 344.622 27.9261 344.622 27.6065C344.622 27.3253 344.678 27.0973 344.789 26.9226C344.899 26.7457 345.047 26.6072 345.233 26.5071C345.418 26.407 345.623 26.3324 345.846 26.2834C346.072 26.2322 346.299 26.1918 346.527 26.1619C346.825 26.1236 347.067 26.0948 347.253 26.0756C347.44 26.0543 347.577 26.0192 347.662 25.9702C347.749 25.9212 347.793 25.8359 347.793 25.7145V25.6889C347.793 25.3736 347.706 25.1286 347.534 24.9538C347.363 24.7791 347.105 24.6918 346.757 24.6918C346.397 24.6918 346.115 24.7706 345.91 24.9283C345.706 25.0859 345.562 25.2543 345.479 25.4332L344.763 25.1776C344.891 24.8793 345.061 24.647 345.274 24.4808C345.49 24.3125 345.724 24.1953 345.977 24.1293C346.233 24.0611 346.485 24.027 346.732 24.027C346.889 24.027 347.07 24.0462 347.275 24.0845C347.482 24.1207 347.681 24.1964 347.873 24.3114C348.067 24.4265 348.227 24.6001 348.355 24.8324C348.483 25.0646 348.547 25.3757 348.547 25.7656V29H347.793V28.3352H347.754C347.703 28.4418 347.618 28.5558 347.499 28.6772C347.379 28.7987 347.221 28.902 347.023 28.9872C346.824 29.0724 346.583 29.1151 346.297 29.1151ZM346.412 28.4375C346.71 28.4375 346.962 28.3789 347.166 28.2617C347.373 28.1445 347.529 27.9933 347.633 27.8079C347.74 27.6225 347.793 27.4276 347.793 27.223V26.5327C347.761 26.571 347.691 26.6062 347.582 26.6381C347.475 26.668 347.352 26.6946 347.211 26.718C347.073 26.7393 346.937 26.7585 346.805 26.7756C346.675 26.7905 346.57 26.8033 346.489 26.8139C346.293 26.8395 346.11 26.881 345.939 26.9386C345.771 26.994 345.634 27.0781 345.53 27.1911C345.428 27.3018 345.377 27.4531 345.377 27.6449C345.377 27.907 345.474 28.1051 345.667 28.2393C345.863 28.3714 346.112 28.4375 346.412 28.4375ZM352.455 29V24.0909H353.184V24.858H353.248C353.35 24.5959 353.515 24.3924 353.743 24.2475C353.971 24.1005 354.245 24.027 354.564 24.027C354.888 24.027 355.158 24.1005 355.373 24.2475C355.59 24.3924 355.76 24.5959 355.881 24.858H355.932C356.058 24.6044 356.247 24.4031 356.498 24.2539C356.749 24.1026 357.051 24.027 357.402 24.027C357.841 24.027 358.2 24.1644 358.479 24.4393C358.759 24.712 358.898 25.1371 358.898 25.7145V29H358.144V25.7145C358.144 25.3523 358.045 25.0934 357.847 24.9379C357.649 24.7823 357.415 24.7045 357.147 24.7045C356.802 24.7045 356.534 24.8089 356.345 25.0178C356.155 25.2244 356.06 25.4865 356.06 25.804V29H355.293V25.6378C355.293 25.3587 355.203 25.1339 355.021 24.9634C354.84 24.7908 354.607 24.7045 354.321 24.7045C354.125 24.7045 353.942 24.7567 353.772 24.8612C353.603 24.9656 353.467 25.1104 353.363 25.2958C353.26 25.479 353.209 25.6911 353.209 25.9318V29H352.455ZM360.277 29V24.0909H361.032V29H360.277ZM360.661 23.2727C360.514 23.2727 360.387 23.2227 360.28 23.1225C360.176 23.0224 360.124 22.902 360.124 22.7614C360.124 22.6207 360.176 22.5004 360.28 22.4002C360.387 22.3001 360.514 22.25 360.661 22.25C360.808 22.25 360.934 22.3001 361.038 22.4002C361.144 22.5004 361.198 22.6207 361.198 22.7614C361.198 22.902 361.144 23.0224 361.038 23.1225C360.934 23.2227 360.808 23.2727 360.661 23.2727ZM363.167 26.0469V29H362.413V24.0909H363.142V24.858H363.206C363.321 24.6087 363.495 24.4084 363.73 24.2571C363.964 24.1037 364.267 24.027 364.637 24.027C364.97 24.027 365.261 24.0952 365.51 24.2315C365.759 24.3658 365.953 24.5703 366.092 24.8452C366.23 25.1179 366.299 25.4631 366.299 25.8807V29H365.545V25.9318C365.545 25.5462 365.445 25.2457 365.245 25.0305C365.044 24.8132 364.77 24.7045 364.42 24.7045C364.179 24.7045 363.964 24.7567 363.775 24.8612C363.587 24.9656 363.439 25.1179 363.33 25.3182C363.222 25.5185 363.167 25.7614 363.167 26.0469ZM370.771 26.9929V24.0909H371.526V29H370.771V28.169H370.72C370.605 28.4183 370.426 28.6303 370.183 28.805C369.94 28.9776 369.634 29.0639 369.263 29.0639C368.956 29.0639 368.683 28.9968 368.445 28.8626C368.206 28.7262 368.019 28.5217 367.882 28.2489C367.746 27.9741 367.678 27.6278 367.678 27.2102V24.0909H368.432V27.1591C368.432 27.517 368.532 27.8026 368.732 28.0156C368.935 28.2287 369.193 28.3352 369.506 28.3352C369.693 28.3352 369.884 28.2873 370.078 28.1914C370.274 28.0955 370.438 27.9485 370.57 27.7504C370.704 27.5522 370.771 27.2997 370.771 26.9929ZM375.042 24.0909V24.7301H372.498V24.0909H375.042ZM373.24 22.9148H373.994V27.5938C373.994 27.8068 374.025 27.9666 374.086 28.0732C374.15 28.1776 374.231 28.2479 374.329 28.2841C374.43 28.3182 374.535 28.3352 374.646 28.3352C374.729 28.3352 374.797 28.331 374.85 28.3224C374.904 28.3118 374.946 28.3033 374.978 28.2969L375.132 28.9744C375.08 28.9936 375.009 29.0128 374.917 29.032C374.826 29.0533 374.71 29.0639 374.569 29.0639C374.356 29.0639 374.147 29.0181 373.943 28.9265C373.74 28.8349 373.572 28.6953 373.438 28.5078C373.306 28.3203 373.24 28.0838 373.24 27.7983V22.9148ZM378.182 29.1023C377.709 29.1023 377.301 28.9979 376.958 28.7891C376.617 28.5781 376.354 28.2841 376.169 27.907C375.985 27.5277 375.894 27.0866 375.894 26.5838C375.894 26.081 375.985 25.6378 376.169 25.2543C376.354 24.8686 376.612 24.5682 376.942 24.353C377.275 24.1357 377.662 24.027 378.105 24.027C378.361 24.027 378.614 24.0696 378.863 24.1548C379.112 24.2401 379.339 24.3786 379.544 24.5703C379.748 24.7599 379.911 25.0114 380.033 25.3246C380.154 25.6378 380.215 26.0234 380.215 26.4815V26.8011H376.431V26.1491H379.448C379.448 25.8722 379.392 25.625 379.282 25.4077C379.173 25.1903 379.017 25.0188 378.815 24.8931C378.615 24.7674 378.378 24.7045 378.105 24.7045C377.805 24.7045 377.545 24.7791 377.326 24.9283C377.108 25.0753 376.941 25.267 376.824 25.5036C376.707 25.7401 376.648 25.9936 376.648 26.2642V26.6989C376.648 27.0696 376.712 27.3839 376.84 27.6417C376.97 27.8974 377.15 28.0923 377.38 28.2266C377.61 28.3587 377.877 28.4247 378.182 28.4247C378.38 28.4247 378.559 28.397 378.719 28.3416C378.881 28.2841 379.021 28.1989 379.138 28.0859C379.255 27.9709 379.346 27.8281 379.409 27.6577L380.138 27.8622C380.061 28.1094 379.933 28.3267 379.751 28.5142C379.57 28.6996 379.347 28.8445 379.08 28.9489C378.814 29.0511 378.515 29.1023 378.182 29.1023ZM382.347 27.1591V27.1207C382.351 26.7138 382.393 26.3899 382.474 26.1491C382.555 25.9084 382.67 25.7134 382.82 25.5643C382.969 25.4151 383.148 25.2777 383.357 25.152C383.482 25.0753 383.595 24.9847 383.695 24.8803C383.795 24.7738 383.874 24.6513 383.932 24.5128C383.991 24.3743 384.021 24.2209 384.021 24.0526C384.021 23.8437 383.972 23.6626 383.874 23.5092C383.776 23.3558 383.645 23.2376 383.481 23.1545C383.317 23.0714 383.135 23.0298 382.935 23.0298C382.76 23.0298 382.592 23.0661 382.43 23.1385C382.268 23.2109 382.132 23.3249 382.024 23.4805C381.915 23.636 381.852 23.8395 381.835 24.0909H381.03C381.047 23.7287 381.141 23.4187 381.311 23.1609C381.484 22.9031 381.711 22.706 381.992 22.5696C382.275 22.4332 382.589 22.3651 382.935 22.3651C383.31 22.3651 383.636 22.4396 383.913 22.5888C384.192 22.7379 384.407 22.9425 384.558 23.2024C384.712 23.4624 384.788 23.7585 384.788 24.0909C384.788 24.3253 384.752 24.5373 384.68 24.7269C384.609 24.9165 384.507 25.0859 384.373 25.2351C384.241 25.3842 384.081 25.5163 383.893 25.6314C383.706 25.7486 383.556 25.8722 383.443 26.0021C383.33 26.13 383.248 26.2823 383.197 26.4592C383.146 26.636 383.118 26.8565 383.114 27.1207V27.1591H382.347ZM382.756 29.0511C382.598 29.0511 382.463 28.9947 382.35 28.8817C382.237 28.7688 382.18 28.6335 382.18 28.4759C382.18 28.3182 382.237 28.1829 382.35 28.07C382.463 27.957 382.598 27.9006 382.756 27.9006C382.913 27.9006 383.049 27.957 383.162 28.07C383.275 28.1829 383.331 28.3182 383.331 28.4759C383.331 28.5803 383.304 28.6761 383.251 28.7635C383.2 28.8509 383.131 28.9212 383.043 28.9744C382.958 29.0256 382.862 29.0511 382.756 29.0511Z" fill="black"/>
<g id="Logo">
<rect id="Rectangle 4" x="269" y="7" width="25" height="25" rx="5" fill="#FAFAFA"/>
<rect id="Rectangle 5" x="282" y="10" width="3" height="9" rx="1.5" fill="#4ADC78"/>
<rect id="Rectangle 12" x="286" y="16" width="3" height="3" rx="1.5" fill="#4ADC78"/>
<rect id="Rectangle 7" x="278" y="20" width="3" height="9" rx="1.5" fill="#F26D6D"/>
<rect id="Rectangle 10" x="274" y="20" width="3" height="3" rx="1.5" fill="#F26D6D"/>
<rect id="Rectangle 6" x="291" y="20" width="3" height="9" rx="1.5" transform="rotate(90 291 20)" fill="#F9C55D"/>
<rect id="Rectangle 9" x="285" y="24" width="3" height="3" rx="1.5" transform="rotate(90 285 24)" fill="#F9C55D"/>
<rect id="Rectangle 8" x="281" y="16" width="3" height="9" rx="1.5" transform="rotate(90 281 16)" fill="#70E3FD"/>
<rect id="Rectangle 11" x="281" y="12" width="3" height="3" rx="1.5" transform="rotate(90 281 12)" fill="#70E3FD"/>
</g>
</g>
<g id="Notification 2">
<rect id="Rectangle 3_2" x="257" y="48" width="186" height="39" rx="19.5" fill="#EAEAEA"/>
<path id="Monika Musterfrau" d="M306.569 57.4545H308.276L310.078 61.8523H310.155L311.957 57.4545H313.664V64H312.322V59.7397H312.267L310.574 63.968H309.659L307.966 59.7237H307.911V64H306.569V57.4545ZM316.997 64.0959C316.5 64.0959 316.071 63.9904 315.709 63.7795C315.349 63.5664 315.071 63.2702 314.875 62.891C314.679 62.5096 314.581 62.0675 314.581 61.5646C314.581 61.0575 314.679 60.6143 314.875 60.2351C315.071 59.8537 315.349 59.5575 315.709 59.3466C316.071 59.1335 316.5 59.027 316.997 59.027C317.493 59.027 317.921 59.1335 318.282 59.3466C318.644 59.5575 318.923 59.8537 319.119 60.2351C319.315 60.6143 319.413 61.0575 319.413 61.5646C319.413 62.0675 319.315 62.5096 319.119 62.891C318.923 63.2702 318.644 63.5664 318.282 63.7795C317.921 63.9904 317.493 64.0959 316.997 64.0959ZM317.003 63.0412C317.229 63.0412 317.418 62.9773 317.569 62.8494C317.72 62.7195 317.834 62.5426 317.911 62.3189C317.99 62.0952 318.029 61.8406 318.029 61.555C318.029 61.2695 317.99 61.0149 317.911 60.7912C317.834 60.5675 317.72 60.3906 317.569 60.2607C317.418 60.1307 317.229 60.0657 317.003 60.0657C316.775 60.0657 316.583 60.1307 316.428 60.2607C316.274 60.3906 316.158 60.5675 316.079 60.7912C316.003 61.0149 315.964 61.2695 315.964 61.555C315.964 61.8406 316.003 62.0952 316.079 62.3189C316.158 62.5426 316.274 62.7195 316.428 62.8494C316.583 62.9773 316.775 63.0412 317.003 63.0412ZM321.66 61.1619V64H320.298V59.0909H321.596V59.957H321.653C321.762 59.6715 321.944 59.4457 322.2 59.2795C322.456 59.1112 322.766 59.027 323.13 59.027C323.471 59.027 323.768 59.1016 324.022 59.2507C324.275 59.3999 324.472 59.6129 324.613 59.8899C324.753 60.1648 324.824 60.4929 324.824 60.8743V64H323.462V61.1172C323.464 60.8168 323.388 60.5824 323.232 60.4141C323.077 60.2436 322.862 60.1584 322.59 60.1584C322.407 60.1584 322.245 60.1978 322.104 60.2766C321.965 60.3555 321.857 60.4705 321.778 60.6218C321.701 60.771 321.662 60.951 321.66 61.1619ZM325.897 64V59.0909H327.258V64H325.897ZM326.581 58.4581C326.378 58.4581 326.205 58.391 326.06 58.2567C325.917 58.1204 325.846 57.9574 325.846 57.7678C325.846 57.5803 325.917 57.4194 326.06 57.2852C326.205 57.1488 326.378 57.0806 326.581 57.0806C326.783 57.0806 326.956 57.1488 327.099 57.2852C327.243 57.4194 327.316 57.5803 327.316 57.7678C327.316 57.9574 327.243 58.1204 327.099 58.2567C326.956 58.391 326.783 58.4581 326.581 58.4581ZM329.583 62.5874L329.586 60.9542H329.784L331.356 59.0909H332.919L330.807 61.5582H330.484L329.583 62.5874ZM328.349 64V57.4545H329.71V64H328.349ZM331.417 64L329.973 61.8619L330.88 60.8999L333.012 64H331.417ZM334.987 64.0927C334.674 64.0927 334.395 64.0384 334.15 63.9297C333.905 63.8189 333.711 63.6559 333.568 63.4407C333.427 63.2234 333.357 62.9528 333.357 62.6289C333.357 62.3562 333.407 62.1271 333.507 61.9418C333.608 61.7564 333.744 61.6072 333.916 61.4943C334.089 61.3814 334.285 61.2962 334.505 61.2386C334.726 61.1811 334.958 61.1406 335.201 61.1172C335.487 61.0874 335.717 61.0597 335.892 61.0341C336.066 61.0064 336.193 60.9659 336.272 60.9126C336.351 60.8594 336.39 60.7805 336.39 60.6761V60.657C336.39 60.4545 336.326 60.2979 336.198 60.1871C336.073 60.0763 335.894 60.021 335.661 60.021C335.416 60.021 335.222 60.0753 335.077 60.1839C334.932 60.2905 334.836 60.4247 334.789 60.5866L333.53 60.4844C333.594 60.1861 333.719 59.9283 333.907 59.7109C334.094 59.4915 334.336 59.3232 334.632 59.206C334.931 59.0866 335.276 59.027 335.668 59.027C335.941 59.027 336.202 59.0589 336.451 59.1229C336.702 59.1868 336.925 59.2859 337.119 59.4201C337.315 59.5543 337.469 59.7269 337.582 59.9379C337.695 60.1467 337.752 60.397 337.752 60.6889V64H336.46V63.3192H336.422C336.343 63.4727 336.238 63.608 336.106 63.7251C335.974 63.8402 335.815 63.9308 335.63 63.9968C335.444 64.0607 335.23 64.0927 334.987 64.0927ZM335.377 63.1531C335.577 63.1531 335.754 63.1136 335.908 63.0348C336.061 62.9538 336.181 62.8452 336.269 62.7088C336.356 62.5724 336.4 62.418 336.4 62.2454V61.7244C336.357 61.7521 336.299 61.7777 336.224 61.8011C336.152 61.8224 336.07 61.8427 335.978 61.8619C335.886 61.8789 335.795 61.8949 335.703 61.9098C335.611 61.9226 335.528 61.9343 335.454 61.945C335.294 61.9684 335.154 62.0057 335.035 62.0568C334.916 62.108 334.823 62.1772 334.757 62.2646C334.691 62.3498 334.658 62.4563 334.658 62.5842C334.658 62.7695 334.725 62.9112 334.859 63.0092C334.996 63.1051 335.168 63.1531 335.377 63.1531ZM340.917 57.4545H342.623L344.426 61.8523H344.502L346.305 57.4545H348.012V64H346.669V59.7397H346.615L344.921 63.968H344.007L342.313 59.7237H342.259V64H340.917V57.4545ZM352.274 61.9098V59.0909H353.636V64H352.329V63.1083H352.278C352.167 63.396 351.983 63.6271 351.725 63.8018C351.469 63.9766 351.157 64.0639 350.788 64.0639C350.46 64.0639 350.171 63.9893 349.922 63.8402C349.673 63.6911 349.478 63.479 349.337 63.2042C349.199 62.9293 349.128 62.6001 349.126 62.2166V59.0909H350.488V61.9737C350.49 62.2635 350.568 62.4925 350.721 62.6609C350.875 62.8292 351.08 62.9134 351.338 62.9134C351.502 62.9134 351.655 62.8761 351.798 62.8015C351.941 62.7248 352.056 62.6119 352.143 62.4627C352.233 62.3136 352.277 62.1293 352.274 61.9098ZM358.809 60.4908L357.563 60.5675C357.542 60.4609 357.496 60.3651 357.426 60.2798C357.355 60.1925 357.263 60.1232 357.148 60.0721C357.035 60.0188 356.899 59.9922 356.742 59.9922C356.531 59.9922 356.353 60.0369 356.208 60.1264C356.063 60.2138 355.991 60.331 355.991 60.478C355.991 60.5952 356.037 60.6942 356.131 60.7752C356.225 60.8562 356.386 60.9212 356.614 60.9702L357.502 61.1491C357.98 61.2472 358.335 61.4048 358.57 61.6222C358.804 61.8395 358.921 62.125 358.921 62.4787C358.921 62.8004 358.827 63.0827 358.637 63.3256C358.449 63.5685 358.192 63.7582 357.863 63.8945C357.537 64.0288 357.161 64.0959 356.735 64.0959C356.085 64.0959 355.568 63.9606 355.182 63.69C354.798 63.4173 354.574 63.0465 354.508 62.5778L355.847 62.5075C355.887 62.7056 355.985 62.8569 356.141 62.9613C356.296 63.0636 356.496 63.1147 356.738 63.1147C356.977 63.1147 357.169 63.0689 357.314 62.9773C357.461 62.8835 357.535 62.7631 357.537 62.6161C357.535 62.4925 357.483 62.3913 357.381 62.3125C357.279 62.2315 357.121 62.1697 356.908 62.1271L356.058 61.9577C355.578 61.8619 355.221 61.6957 354.987 61.4592C354.755 61.2227 354.639 60.9212 354.639 60.5547C354.639 60.2393 354.724 59.9677 354.894 59.7397C355.067 59.5117 355.309 59.3359 355.62 59.2124C355.933 59.0888 356.3 59.027 356.719 59.027C357.339 59.027 357.827 59.158 358.183 59.4201C358.541 59.6822 358.75 60.0391 358.809 60.4908ZM362.39 59.0909V60.1136H359.434V59.0909H362.39ZM360.105 57.9148H361.466V62.4915C361.466 62.6172 361.485 62.7152 361.524 62.7855C361.562 62.8537 361.615 62.9016 361.684 62.9293C361.754 62.957 361.835 62.9709 361.926 62.9709C361.99 62.9709 362.054 62.9656 362.118 62.9549C362.182 62.9421 362.231 62.9325 362.265 62.9261L362.479 63.9393C362.411 63.9606 362.315 63.9851 362.192 64.0128C362.068 64.0426 361.918 64.0607 361.741 64.0671C361.413 64.0799 361.125 64.0362 360.878 63.9361C360.633 63.8359 360.442 63.6804 360.306 63.4695C360.17 63.2585 360.103 62.9922 360.105 62.6705V57.9148ZM365.461 64.0959C364.956 64.0959 364.522 63.9936 364.157 63.7891C363.795 63.5824 363.516 63.2905 363.32 62.9134C363.124 62.5341 363.026 62.0856 363.026 61.5678C363.026 61.0629 363.124 60.6197 363.32 60.2383C363.516 59.8569 363.792 59.5597 364.148 59.3466C364.506 59.1335 364.925 59.027 365.407 59.027C365.731 59.027 366.032 59.0792 366.311 59.1836C366.593 59.2859 366.838 59.4403 367.046 59.647C367.257 59.8537 367.421 60.1136 367.539 60.4268C367.656 60.7379 367.714 61.1023 367.714 61.5199V61.8938H363.569V61.0501H366.433C366.433 60.854 366.39 60.6804 366.305 60.5291C366.22 60.3778 366.101 60.2596 365.95 60.1744C365.801 60.087 365.627 60.0433 365.429 60.0433C365.223 60.0433 365.039 60.0913 364.88 60.1871C364.722 60.2809 364.598 60.4077 364.509 60.5675C364.419 60.7251 364.373 60.9009 364.371 61.0948V61.897C364.371 62.1399 364.416 62.3498 364.506 62.5266C364.597 62.7035 364.726 62.8398 364.892 62.9357C365.059 63.0316 365.256 63.0795 365.484 63.0795C365.635 63.0795 365.773 63.0582 365.899 63.0156C366.025 62.973 366.132 62.9091 366.222 62.8239C366.311 62.7386 366.38 62.6342 366.426 62.5107L367.686 62.5938C367.622 62.8963 367.491 63.1605 367.293 63.3864C367.097 63.6101 366.843 63.7848 366.532 63.9105C366.223 64.0341 365.866 64.0959 365.461 64.0959ZM368.603 64V59.0909H369.923V59.9474H369.974C370.063 59.6428 370.214 59.4126 370.425 59.2571C370.636 59.0994 370.878 59.0206 371.153 59.0206C371.222 59.0206 371.295 59.0249 371.374 59.0334C371.453 59.0419 371.522 59.0536 371.582 59.0685V60.2766C371.518 60.2575 371.429 60.2404 371.316 60.2255C371.203 60.2106 371.1 60.2031 371.006 60.2031C370.806 60.2031 370.627 60.2468 370.469 60.3342C370.314 60.4194 370.19 60.5387 370.099 60.6921C370.009 60.8455 369.964 61.0224 369.964 61.2227V64H368.603ZM375.172 59.0909V60.1136H372.142V59.0909H375.172ZM372.835 64V58.7362C372.835 58.3803 372.904 58.0852 373.043 57.8509C373.184 57.6165 373.375 57.4407 373.618 57.3235C373.861 57.2063 374.137 57.1477 374.446 57.1477C374.655 57.1477 374.846 57.1637 375.018 57.1957C375.193 57.2276 375.323 57.2564 375.408 57.282L375.165 58.3047C375.112 58.2876 375.046 58.2717 374.967 58.2567C374.89 58.2418 374.811 58.2344 374.73 58.2344C374.53 58.2344 374.391 58.2812 374.312 58.375C374.233 58.4666 374.194 58.5955 374.194 58.7617V64H372.835ZM376.003 64V59.0909H377.323V59.9474H377.374C377.464 59.6428 377.614 59.4126 377.825 59.2571C378.036 59.0994 378.279 59.0206 378.554 59.0206C378.622 59.0206 378.695 59.0249 378.774 59.0334C378.853 59.0419 378.922 59.0536 378.982 59.0685V60.2766C378.918 60.2575 378.83 60.2404 378.717 60.2255C378.604 60.2106 378.5 60.2031 378.407 60.2031C378.206 60.2031 378.027 60.2468 377.87 60.3342C377.714 60.4194 377.591 60.5387 377.499 60.6921C377.41 60.8455 377.365 61.0224 377.365 61.2227V64H376.003ZM380.945 64.0927C380.632 64.0927 380.353 64.0384 380.108 63.9297C379.863 63.8189 379.669 63.6559 379.526 63.4407C379.385 63.2234 379.315 62.9528 379.315 62.6289C379.315 62.3562 379.365 62.1271 379.465 61.9418C379.566 61.7564 379.702 61.6072 379.874 61.4943C380.047 61.3814 380.243 61.2962 380.463 61.2386C380.684 61.1811 380.916 61.1406 381.159 61.1172C381.445 61.0874 381.675 61.0597 381.85 61.0341C382.024 61.0064 382.151 60.9659 382.23 60.9126C382.309 60.8594 382.348 60.7805 382.348 60.6761V60.657C382.348 60.4545 382.284 60.2979 382.156 60.1871C382.031 60.0763 381.852 60.021 381.619 60.021C381.374 60.021 381.18 60.0753 381.035 60.1839C380.89 60.2905 380.794 60.4247 380.747 60.5866L379.488 60.4844C379.552 60.1861 379.677 59.9283 379.865 59.7109C380.052 59.4915 380.294 59.3232 380.59 59.206C380.889 59.0866 381.234 59.027 381.626 59.027C381.899 59.027 382.16 59.0589 382.409 59.1229C382.66 59.1868 382.883 59.2859 383.077 59.4201C383.273 59.5543 383.427 59.7269 383.54 59.9379C383.653 60.1467 383.71 60.397 383.71 60.6889V64H382.419V63.3192H382.38C382.301 63.4727 382.196 63.608 382.064 63.7251C381.932 63.8402 381.773 63.9308 381.588 63.9968C381.402 64.0607 381.188 64.0927 380.945 64.0927ZM381.335 63.1531C381.535 63.1531 381.712 63.1136 381.866 63.0348C382.019 62.9538 382.139 62.8452 382.227 62.7088C382.314 62.5724 382.358 62.418 382.358 62.2454V61.7244C382.315 61.7521 382.257 61.7777 382.182 61.8011C382.11 61.8224 382.028 61.8427 381.936 61.8619C381.844 61.8789 381.753 61.8949 381.661 61.9098C381.569 61.9226 381.486 61.9343 381.412 61.945C381.252 61.9684 381.112 62.0057 380.993 62.0568C380.874 62.108 380.781 62.1772 380.715 62.2646C380.649 62.3498 380.616 62.4563 380.616 62.5842C380.616 62.7695 380.683 62.9112 380.817 63.0092C380.954 63.1051 381.126 63.1531 381.335 63.1531ZM387.914 61.9098V59.0909H389.276V64H387.968V63.1083H387.917C387.806 63.396 387.622 63.6271 387.364 63.8018C387.109 63.9766 386.797 64.0639 386.428 64.0639C386.1 64.0639 385.811 63.9893 385.562 63.8402C385.313 63.6911 385.118 63.479 384.977 63.2042C384.838 62.9293 384.768 62.6001 384.766 62.2166V59.0909H386.127V61.9737C386.13 62.2635 386.207 62.4925 386.361 62.6609C386.514 62.8292 386.72 62.9134 386.978 62.9134C387.142 62.9134 387.295 62.8761 387.438 62.8015C387.581 62.7248 387.696 62.6119 387.783 62.4627C387.873 62.3136 387.916 62.1293 387.914 61.9098Z" fill="black"/>
<path id="Beer later?" d="M306.793 77V70.4545H309.081C309.537 70.4545 309.913 70.5334 310.209 70.6911C310.505 70.8466 310.726 71.0565 310.871 71.3207C311.016 71.5827 311.088 71.8736 311.088 72.1932C311.088 72.4744 311.038 72.7067 310.938 72.8899C310.84 73.0732 310.71 73.218 310.548 73.3246C310.388 73.4311 310.214 73.5099 310.027 73.5611V73.625C310.227 73.6378 310.429 73.7081 310.631 73.8359C310.833 73.9638 311.003 74.147 311.139 74.3857C311.276 74.6243 311.344 74.9162 311.344 75.2614C311.344 75.5895 311.269 75.8846 311.12 76.1467C310.971 76.4087 310.735 76.6165 310.414 76.7699C310.092 76.9233 309.673 77 309.158 77H306.793ZM307.585 76.2969H309.158C309.675 76.2969 310.043 76.1967 310.26 75.9964C310.48 75.794 310.589 75.549 310.589 75.2614C310.589 75.0398 310.533 74.8352 310.42 74.6477C310.307 74.4581 310.146 74.3068 309.938 74.1939C309.729 74.0788 309.482 74.0213 309.196 74.0213H307.585V76.2969ZM307.585 73.331H309.055C309.294 73.331 309.509 73.2841 309.701 73.1903C309.895 73.0966 310.048 72.9645 310.161 72.794C310.276 72.6236 310.334 72.4233 310.334 72.1932C310.334 71.9055 310.234 71.6616 310.033 71.4613C309.833 71.2589 309.516 71.1577 309.081 71.1577H307.585V73.331ZM314.602 77.1023C314.129 77.1023 313.721 76.9979 313.378 76.7891C313.037 76.5781 312.774 76.2841 312.589 75.907C312.405 75.5277 312.314 75.0866 312.314 74.5838C312.314 74.081 312.405 73.6378 312.589 73.2543C312.774 72.8686 313.032 72.5682 313.362 72.353C313.694 72.1357 314.082 72.027 314.525 72.027C314.781 72.027 315.034 72.0696 315.283 72.1548C315.532 72.2401 315.759 72.3786 315.964 72.5703C316.168 72.7599 316.331 73.0114 316.453 73.3246C316.574 73.6378 316.635 74.0234 316.635 74.4815V74.8011H312.851V74.1491H315.868C315.868 73.8722 315.812 73.625 315.702 73.4077C315.593 73.1903 315.437 73.0188 315.235 72.8931C315.035 72.7674 314.798 72.7045 314.525 72.7045C314.225 72.7045 313.965 72.7791 313.746 72.9283C313.528 73.0753 313.361 73.267 313.244 73.5036C313.127 73.7401 313.068 73.9936 313.068 74.2642V74.6989C313.068 75.0696 313.132 75.3839 313.26 75.6417C313.39 75.8974 313.57 76.0923 313.8 76.2266C314.03 76.3587 314.297 76.4247 314.602 76.4247C314.8 76.4247 314.979 76.397 315.139 76.3416C315.301 76.2841 315.441 76.1989 315.558 76.0859C315.675 75.9709 315.765 75.8281 315.829 75.6577L316.558 75.8622C316.481 76.1094 316.352 76.3267 316.171 76.5142C315.99 76.6996 315.767 76.8445 315.5 76.9489C315.234 77.0511 314.934 77.1023 314.602 77.1023ZM319.84 77.1023C319.367 77.1023 318.959 76.9979 318.616 76.7891C318.275 76.5781 318.012 76.2841 317.827 75.907C317.644 75.5277 317.552 75.0866 317.552 74.5838C317.552 74.081 317.644 73.6378 317.827 73.2543C318.012 72.8686 318.27 72.5682 318.6 72.353C318.933 72.1357 319.32 72.027 319.764 72.027C320.019 72.027 320.272 72.0696 320.521 72.1548C320.77 72.2401 320.997 72.3786 321.202 72.5703C321.406 72.7599 321.569 73.0114 321.691 73.3246C321.812 73.6378 321.873 74.0234 321.873 74.4815V74.8011H318.089V74.1491H321.106C321.106 73.8722 321.051 73.625 320.94 73.4077C320.831 73.1903 320.676 73.0188 320.473 72.8931C320.273 72.7674 320.036 72.7045 319.764 72.7045C319.463 72.7045 319.203 72.7791 318.984 72.9283C318.767 73.0753 318.599 73.267 318.482 73.5036C318.365 73.7401 318.306 73.9936 318.306 74.2642V74.6989C318.306 75.0696 318.37 75.3839 318.498 75.6417C318.628 75.8974 318.808 76.0923 319.038 76.2266C319.268 76.3587 319.536 76.4247 319.84 76.4247C320.039 76.4247 320.218 76.397 320.377 76.3416C320.539 76.2841 320.679 76.1989 320.796 76.0859C320.913 75.9709 321.004 75.8281 321.068 75.6577L321.796 75.8622C321.72 76.1094 321.591 76.3267 321.41 76.5142C321.229 76.6996 321.005 76.8445 320.738 76.9489C320.472 77.0511 320.173 77.1023 319.84 77.1023ZM323.02 77V72.0909H323.749V72.8324H323.8C323.89 72.5895 324.052 72.3924 324.286 72.2411C324.52 72.0898 324.785 72.0142 325.079 72.0142C325.134 72.0142 325.203 72.0153 325.286 72.0174C325.369 72.0195 325.432 72.0227 325.475 72.027V72.794C325.449 72.7876 325.391 72.7781 325.299 72.7653C325.21 72.7504 325.115 72.7429 325.015 72.7429C324.776 72.7429 324.563 72.793 324.376 72.8931C324.19 72.9911 324.043 73.1275 323.934 73.3022C323.828 73.4748 323.775 73.6719 323.775 73.8935V77H323.02ZM329.655 70.4545V77H328.9V70.4545H329.655ZM332.481 77.1151C332.17 77.1151 331.887 77.0565 331.634 76.9393C331.38 76.82 331.179 76.6484 331.03 76.4247C330.881 76.1989 330.806 75.9261 330.806 75.6065C330.806 75.3253 330.861 75.0973 330.972 74.9226C331.083 74.7457 331.231 74.6072 331.416 74.5071C331.602 74.407 331.806 74.3324 332.03 74.2834C332.256 74.2322 332.483 74.1918 332.711 74.1619C333.009 74.1236 333.251 74.0948 333.436 74.0756C333.624 74.0543 333.76 74.0192 333.845 73.9702C333.933 73.9212 333.976 73.8359 333.976 73.7145V73.6889C333.976 73.3736 333.89 73.1286 333.718 72.9538C333.547 72.7791 333.288 72.6918 332.941 72.6918C332.581 72.6918 332.298 72.7706 332.094 72.9283C331.889 73.0859 331.746 73.2543 331.662 73.4332L330.947 73.1776C331.074 72.8793 331.245 72.647 331.458 72.4808C331.673 72.3125 331.907 72.1953 332.161 72.1293C332.417 72.0611 332.668 72.027 332.915 72.027C333.073 72.027 333.254 72.0462 333.459 72.0845C333.665 72.1207 333.865 72.1964 334.056 72.3114C334.25 72.4265 334.411 72.6001 334.539 72.8324C334.667 73.0646 334.731 73.3757 334.731 73.7656V77H333.976V76.3352H333.938C333.887 76.4418 333.802 76.5558 333.682 76.6772C333.563 76.7987 333.404 76.902 333.206 76.9872C333.008 77.0724 332.766 77.1151 332.481 77.1151ZM332.596 76.4375C332.894 76.4375 333.145 76.3789 333.35 76.2617C333.557 76.1445 333.712 75.9933 333.817 75.8079C333.923 75.6225 333.976 75.4276 333.976 75.223V74.5327C333.944 74.571 333.874 74.6062 333.765 74.6381C333.659 74.668 333.535 74.6946 333.395 74.718C333.256 74.7393 333.121 74.7585 332.989 74.7756C332.859 74.7905 332.753 74.8033 332.672 74.8139C332.476 74.8395 332.293 74.881 332.123 74.9386C331.954 74.994 331.818 75.0781 331.714 75.1911C331.611 75.3018 331.56 75.4531 331.56 75.6449C331.56 75.907 331.657 76.1051 331.851 76.2393C332.047 76.3714 332.295 76.4375 332.596 76.4375ZM338.242 72.0909V72.7301H335.698V72.0909H338.242ZM336.44 70.9148H337.194V75.5938C337.194 75.8068 337.225 75.9666 337.287 76.0732C337.351 76.1776 337.432 76.2479 337.53 76.2841C337.63 76.3182 337.735 76.3352 337.846 76.3352C337.929 76.3352 337.997 76.331 338.051 76.3224C338.104 76.3118 338.146 76.3033 338.178 76.2969L338.332 76.9744C338.281 76.9936 338.209 77.0128 338.118 77.032C338.026 77.0533 337.91 77.0639 337.769 77.0639C337.556 77.0639 337.347 77.0181 337.143 76.9265C336.94 76.8349 336.772 76.6953 336.638 76.5078C336.506 76.3203 336.44 76.0838 336.44 75.7983V70.9148ZM341.382 77.1023C340.909 77.1023 340.501 76.9979 340.158 76.7891C339.817 76.5781 339.554 76.2841 339.369 75.907C339.186 75.5277 339.094 75.0866 339.094 74.5838C339.094 74.081 339.186 73.6378 339.369 73.2543C339.554 72.8686 339.812 72.5682 340.142 72.353C340.475 72.1357 340.862 72.027 341.306 72.027C341.561 72.027 341.814 72.0696 342.063 72.1548C342.312 72.2401 342.539 72.3786 342.744 72.5703C342.948 72.7599 343.111 73.0114 343.233 73.3246C343.354 73.6378 343.415 74.0234 343.415 74.4815V74.8011H339.631V74.1491H342.648C342.648 73.8722 342.593 73.625 342.482 73.4077C342.373 73.1903 342.218 73.0188 342.015 72.8931C341.815 72.7674 341.578 72.7045 341.306 72.7045C341.005 72.7045 340.745 72.7791 340.526 72.9283C340.309 73.0753 340.141 73.267 340.024 73.5036C339.907 73.7401 339.848 73.9936 339.848 74.2642V74.6989C339.848 75.0696 339.912 75.3839 340.04 75.6417C340.17 75.8974 340.35 76.0923 340.58 76.2266C340.81 76.3587 341.078 76.4247 341.382 76.4247C341.581 76.4247 341.759 76.397 341.919 76.3416C342.081 76.2841 342.221 76.1989 342.338 76.0859C342.455 75.9709 342.546 75.8281 342.61 75.6577L343.338 75.8622C343.262 76.1094 343.133 76.3267 342.952 76.5142C342.771 76.6996 342.547 76.8445 342.28 76.9489C342.014 77.0511 341.715 77.1023 341.382 77.1023ZM344.562 77V72.0909H345.291V72.8324H345.342C345.432 72.5895 345.594 72.3924 345.828 72.2411C346.062 72.0898 346.327 72.0142 346.621 72.0142C346.676 72.0142 346.745 72.0153 346.828 72.0174C346.911 72.0195 346.974 72.0227 347.017 72.027V72.794C346.991 72.7876 346.933 72.7781 346.841 72.7653C346.752 72.7504 346.657 72.7429 346.557 72.7429C346.318 72.7429 346.105 72.793 345.918 72.8931C345.732 72.9911 345.585 73.1275 345.476 73.3022C345.37 73.4748 345.317 73.6719 345.317 73.8935V77H344.562ZM348.895 75.1591V75.1207C348.9 74.7138 348.942 74.3899 349.023 74.1491C349.104 73.9084 349.219 73.7134 349.368 73.5643C349.518 73.4151 349.697 73.2777 349.905 73.152C350.031 73.0753 350.144 72.9847 350.244 72.8803C350.344 72.7738 350.423 72.6513 350.481 72.5128C350.54 72.3743 350.57 72.2209 350.57 72.0526C350.57 71.8437 350.521 71.6626 350.423 71.5092C350.325 71.3558 350.194 71.2376 350.03 71.1545C349.866 71.0714 349.684 71.0298 349.483 71.0298C349.309 71.0298 349.14 71.0661 348.979 71.1385C348.817 71.2109 348.681 71.3249 348.573 71.4805C348.464 71.636 348.401 71.8395 348.384 72.0909H347.579C347.596 71.7287 347.689 71.4187 347.86 71.1609C348.032 70.9031 348.259 70.706 348.541 70.5696C348.824 70.4332 349.138 70.3651 349.483 70.3651C349.858 70.3651 350.184 70.4396 350.461 70.5888C350.741 70.7379 350.956 70.9425 351.107 71.2024C351.26 71.4624 351.337 71.7585 351.337 72.0909C351.337 72.3253 351.301 72.5373 351.229 72.7269C351.158 72.9165 351.056 73.0859 350.922 73.2351C350.79 73.3842 350.63 73.5163 350.442 73.6314C350.255 73.7486 350.105 73.8722 349.992 74.0021C349.879 74.13 349.797 74.2823 349.746 74.4592C349.694 74.636 349.667 74.8565 349.662 75.1207V75.1591H348.895ZM349.305 77.0511C349.147 77.0511 349.012 76.9947 348.899 76.8817C348.786 76.7688 348.729 76.6335 348.729 76.4759C348.729 76.3182 348.786 76.1829 348.899 76.07C349.012 75.957 349.147 75.9006 349.305 75.9006C349.462 75.9006 349.597 75.957 349.71 76.07C349.823 76.1829 349.88 76.3182 349.88 76.4759C349.88 76.5803 349.853 76.6761 349.8 76.7635C349.749 76.8509 349.68 76.9212 349.592 76.9744C349.507 77.0256 349.411 77.0511 349.305 77.0511Z" fill="black"/>
<rect id="Rectangle 4_2" x="269" y="55" width="25" height="25" rx="5" fill="#FAFAFA"/>
<g id="Logo_2">
<rect id="Rectangle 14" x="285" y="64" width="5" height="9" rx="2" fill="#5853BF"/>
<rect id="Rectangle 16" x="286" y="60" width="3" height="3" rx="1.5" fill="#5853BF"/>
<rect id="Rectangle 17" x="281" y="59" width="4" height="4" rx="2" fill="#856DE3"/>
<path id="Rectangle 13" d="M280 66C280 64.8954 280.895 64 282 64H284C285.105 64 286 64.8954 286 66V74C286 75.1046 285.105 76 284 76H282C280.895 76 280 75.1046 280 74V66Z" fill="#856DE3"/>
<rect id="Rectangle 15" x="274" y="63" width="9" height="9" fill="#5853BF"/>
</g>
</g>
<g id="Notification 3">
<rect id="Rectangle 3_3" x="257" y="96" width="186" height="39" rx="19.5" fill="#EAEAEA"/>
<path id="Grandma" d="M310.909 107.57C310.864 107.415 310.801 107.277 310.721 107.158C310.64 107.037 310.54 106.934 310.423 106.851C310.308 106.766 310.176 106.701 310.027 106.656C309.88 106.612 309.717 106.589 309.538 106.589C309.203 106.589 308.909 106.672 308.656 106.838C308.404 107.005 308.208 107.246 308.068 107.564C307.927 107.879 307.857 108.265 307.857 108.721C307.857 109.177 307.926 109.565 308.065 109.884C308.203 110.204 308.399 110.448 308.653 110.616C308.906 110.782 309.206 110.865 309.551 110.865C309.864 110.865 310.131 110.81 310.353 110.699C310.577 110.586 310.747 110.428 310.864 110.223C310.984 110.018 311.043 109.777 311.043 109.498L311.325 109.539H309.637V108.497H312.376V109.322C312.376 109.897 312.255 110.391 312.012 110.805C311.769 111.216 311.434 111.533 311.008 111.757C310.582 111.979 310.094 112.089 309.544 112.089C308.931 112.089 308.392 111.954 307.927 111.684C307.463 111.411 307.1 111.024 306.841 110.523C306.583 110.021 306.454 109.424 306.454 108.734C306.454 108.203 306.531 107.73 306.684 107.315C306.839 106.897 307.057 106.543 307.336 106.254C307.615 105.964 307.94 105.743 308.311 105.592C308.681 105.441 309.083 105.365 309.516 105.365C309.886 105.365 310.232 105.419 310.551 105.528C310.871 105.635 311.154 105.786 311.401 105.982C311.651 106.178 311.854 106.411 312.012 106.682C312.169 106.95 312.271 107.246 312.315 107.57H310.909ZM313.39 112V107.091H314.71V107.947H314.761C314.851 107.643 315.001 107.413 315.212 107.257C315.423 107.099 315.666 107.021 315.94 107.021C316.009 107.021 316.082 107.025 316.161 107.033C316.24 107.042 316.309 107.054 316.369 107.069V108.277C316.305 108.257 316.216 108.24 316.103 108.225C315.991 108.211 315.887 108.203 315.793 108.203C315.593 108.203 315.414 108.247 315.256 108.334C315.101 108.419 314.977 108.539 314.886 108.692C314.796 108.846 314.752 109.022 314.752 109.223V112H313.39ZM318.332 112.093C318.019 112.093 317.74 112.038 317.494 111.93C317.249 111.819 317.056 111.656 316.913 111.441C316.772 111.223 316.702 110.953 316.702 110.629C316.702 110.356 316.752 110.127 316.852 109.942C316.952 109.756 317.089 109.607 317.261 109.494C317.434 109.381 317.63 109.296 317.849 109.239C318.071 109.181 318.303 109.141 318.546 109.117C318.831 109.087 319.062 109.06 319.236 109.034C319.411 109.006 319.538 108.966 319.617 108.913C319.695 108.859 319.735 108.781 319.735 108.676V108.657C319.735 108.455 319.671 108.298 319.543 108.187C319.417 108.076 319.238 108.021 319.006 108.021C318.761 108.021 318.566 108.075 318.421 108.184C318.276 108.29 318.181 108.425 318.134 108.587L316.874 108.484C316.938 108.186 317.064 107.928 317.252 107.711C317.439 107.491 317.681 107.323 317.977 107.206C318.275 107.087 318.621 107.027 319.013 107.027C319.285 107.027 319.546 107.059 319.796 107.123C320.047 107.187 320.27 107.286 320.464 107.42C320.66 107.554 320.814 107.727 320.927 107.938C321.04 108.147 321.096 108.397 321.096 108.689V112H319.805V111.319H319.767C319.688 111.473 319.583 111.608 319.45 111.725C319.318 111.84 319.16 111.931 318.974 111.997C318.789 112.061 318.575 112.093 318.332 112.093ZM318.722 111.153C318.922 111.153 319.099 111.114 319.252 111.035C319.406 110.954 319.526 110.845 319.613 110.709C319.701 110.572 319.744 110.418 319.744 110.245V109.724C319.702 109.752 319.643 109.778 319.569 109.801C319.496 109.822 319.414 109.843 319.323 109.862C319.231 109.879 319.139 109.895 319.048 109.91C318.956 109.923 318.873 109.934 318.798 109.945C318.639 109.968 318.499 110.006 318.38 110.057C318.26 110.108 318.168 110.177 318.102 110.265C318.036 110.35 318.003 110.456 318.003 110.584C318.003 110.77 318.07 110.911 318.204 111.009C318.34 111.105 318.513 111.153 318.722 111.153ZM323.514 109.162V112H322.153V107.091H323.45V107.957H323.508C323.616 107.672 323.799 107.446 324.054 107.279C324.31 107.111 324.62 107.027 324.984 107.027C325.325 107.027 325.623 107.102 325.876 107.251C326.13 107.4 326.327 107.613 326.467 107.89C326.608 108.165 326.678 108.493 326.678 108.874V112H325.317V109.117C325.319 108.817 325.242 108.582 325.087 108.414C324.931 108.244 324.717 108.158 324.444 108.158C324.261 108.158 324.099 108.198 323.958 108.277C323.82 108.355 323.711 108.471 323.632 108.622C323.556 108.771 323.516 108.951 323.514 109.162ZM329.56 112.08C329.187 112.08 328.85 111.984 328.547 111.792C328.247 111.598 328.008 111.314 327.831 110.939C327.657 110.562 327.569 110.099 327.569 109.552C327.569 108.989 327.66 108.522 327.841 108.149C328.022 107.774 328.263 107.494 328.563 107.308C328.866 107.121 329.197 107.027 329.557 107.027C329.832 107.027 330.061 107.074 330.244 107.168C330.43 107.259 330.579 107.374 330.692 107.513C330.807 107.649 330.894 107.783 330.954 107.915H330.995V105.455H332.354V112H331.011V111.214H330.954C330.89 111.35 330.799 111.485 330.682 111.62C330.567 111.752 330.417 111.862 330.231 111.949C330.048 112.036 329.824 112.08 329.56 112.08ZM329.992 110.996C330.211 110.996 330.397 110.937 330.548 110.817C330.701 110.696 330.818 110.527 330.899 110.309C330.983 110.092 331.024 109.837 331.024 109.545C331.024 109.254 330.984 109 330.903 108.785C330.822 108.57 330.704 108.403 330.551 108.286C330.398 108.169 330.211 108.11 329.992 108.11C329.768 108.11 329.579 108.171 329.426 108.293C329.273 108.414 329.157 108.582 329.078 108.798C328.999 109.013 328.959 109.262 328.959 109.545C328.959 109.831 328.999 110.083 329.078 110.303C329.159 110.52 329.275 110.691 329.426 110.814C329.579 110.936 329.768 110.996 329.992 110.996ZM333.473 112V107.091H334.771V107.957H334.828C334.93 107.669 335.101 107.442 335.339 107.276C335.578 107.11 335.864 107.027 336.196 107.027C336.533 107.027 336.819 107.111 337.056 107.279C337.292 107.446 337.45 107.672 337.529 107.957H337.58C337.68 107.676 337.861 107.451 338.123 107.283C338.387 107.112 338.7 107.027 339.06 107.027C339.518 107.027 339.89 107.173 340.175 107.465C340.463 107.755 340.607 108.166 340.607 108.699V112H339.248V108.967C339.248 108.694 339.176 108.49 339.031 108.353C338.886 108.217 338.705 108.149 338.488 108.149C338.24 108.149 338.048 108.228 337.909 108.385C337.771 108.541 337.701 108.746 337.701 109.002V112H336.381V108.938C336.381 108.697 336.312 108.506 336.174 108.363C336.037 108.22 335.857 108.149 335.634 108.149C335.482 108.149 335.346 108.187 335.224 108.264C335.105 108.338 335.01 108.444 334.94 108.58C334.87 108.714 334.835 108.872 334.835 109.053V112H333.473ZM343.082 112.093C342.769 112.093 342.49 112.038 342.244 111.93C341.999 111.819 341.806 111.656 341.663 111.441C341.522 111.223 341.452 110.953 341.452 110.629C341.452 110.356 341.502 110.127 341.602 109.942C341.702 109.756 341.839 109.607 342.011 109.494C342.184 109.381 342.38 109.296 342.599 109.239C342.821 109.181 343.053 109.141 343.296 109.117C343.581 109.087 343.812 109.06 343.986 109.034C344.161 109.006 344.288 108.966 344.367 108.913C344.445 108.859 344.485 108.781 344.485 108.676V108.657C344.485 108.455 344.421 108.298 344.293 108.187C344.167 108.076 343.988 108.021 343.756 108.021C343.511 108.021 343.316 108.075 343.171 108.184C343.026 108.29 342.931 108.425 342.884 108.587L341.624 108.484C341.688 108.186 341.814 107.928 342.002 107.711C342.189 107.491 342.431 107.323 342.727 107.206C343.025 107.087 343.371 107.027 343.763 107.027C344.035 107.027 344.296 107.059 344.546 107.123C344.797 107.187 345.02 107.286 345.214 107.42C345.41 107.554 345.564 107.727 345.677 107.938C345.79 108.147 345.846 108.397 345.846 108.689V112H344.555V111.319H344.517C344.438 111.473 344.333 111.608 344.2 111.725C344.068 111.84 343.91 111.931 343.724 111.997C343.539 112.061 343.325 112.093 343.082 112.093ZM343.472 111.153C343.672 111.153 343.849 111.114 344.002 111.035C344.156 110.954 344.276 110.845 344.363 110.709C344.451 110.572 344.494 110.418 344.494 110.245V109.724C344.452 109.752 344.393 109.778 344.319 109.801C344.246 109.822 344.164 109.843 344.073 109.862C343.981 109.879 343.889 109.895 343.798 109.91C343.706 109.923 343.623 109.934 343.548 109.945C343.389 109.968 343.249 110.006 343.13 110.057C343.01 110.108 342.918 110.177 342.852 110.265C342.786 110.35 342.753 110.456 342.753 110.584C342.753 110.77 342.82 110.911 342.954 111.009C343.09 111.105 343.263 111.153 343.472 111.153Z" fill="black"/>
<path id="My printer isn&#226;&#128;&#153;t printing color" d="M306.793 118.455H307.739L309.963 123.888H310.04L312.264 118.455H313.21V125H312.469V120.027H312.405L310.359 125H309.643L307.598 120.027H307.534V125H306.793V118.455ZM315.183 126.841C315.055 126.841 314.941 126.83 314.841 126.809C314.741 126.79 314.672 126.771 314.633 126.751L314.825 126.087C315.008 126.134 315.17 126.151 315.311 126.138C315.451 126.125 315.576 126.062 315.685 125.949C315.796 125.838 315.897 125.658 315.988 125.409L316.129 125.026L314.314 120.091H315.132L316.487 124.003H316.538L317.893 120.091H318.711L316.628 125.716C316.534 125.969 316.418 126.179 316.279 126.346C316.141 126.514 315.98 126.638 315.797 126.719C315.616 126.8 315.411 126.841 315.183 126.841ZM322.238 126.841V120.091H322.967V120.871H323.056C323.112 120.786 323.188 120.677 323.286 120.545C323.387 120.411 323.529 120.291 323.715 120.187C323.902 120.08 324.156 120.027 324.475 120.027C324.889 120.027 325.253 120.13 325.568 120.337C325.884 120.544 326.13 120.837 326.307 121.216C326.484 121.595 326.572 122.043 326.572 122.558C326.572 123.078 326.484 123.529 326.307 123.91C326.13 124.289 325.885 124.583 325.572 124.792C325.258 124.999 324.897 125.102 324.488 125.102C324.173 125.102 323.92 125.05 323.731 124.946C323.541 124.839 323.395 124.719 323.293 124.585C323.191 124.448 323.112 124.335 323.056 124.246H322.992V126.841H322.238ZM322.98 122.545C322.98 122.916 323.034 123.243 323.143 123.527C323.251 123.808 323.41 124.028 323.619 124.188C323.828 124.346 324.083 124.425 324.386 124.425C324.701 124.425 324.964 124.342 325.175 124.175C325.388 124.007 325.548 123.781 325.655 123.498C325.763 123.212 325.818 122.895 325.818 122.545C325.818 122.2 325.764 121.889 325.658 121.612C325.554 121.333 325.395 121.113 325.182 120.951C324.971 120.787 324.706 120.705 324.386 120.705C324.079 120.705 323.821 120.782 323.612 120.938C323.404 121.091 323.246 121.306 323.139 121.583C323.033 121.858 322.98 122.179 322.98 122.545ZM327.723 125V120.091H328.451V120.832H328.502C328.592 120.589 328.754 120.392 328.988 120.241C329.223 120.09 329.487 120.014 329.781 120.014C329.836 120.014 329.905 120.015 329.989 120.017C330.072 120.02 330.134 120.023 330.177 120.027V120.794C330.152 120.788 330.093 120.778 330.001 120.765C329.912 120.75 329.817 120.743 329.717 120.743C329.478 120.743 329.265 120.793 329.078 120.893C328.892 120.991 328.745 121.127 328.637 121.302C328.53 121.475 328.477 121.672 328.477 121.893V125H327.723ZM331.071 125V120.091H331.825V125H331.071ZM331.455 119.273C331.308 119.273 331.181 119.223 331.074 119.123C330.97 119.022 330.918 118.902 330.918 118.761C330.918 118.621 330.97 118.5 331.074 118.4C331.181 118.3 331.308 118.25 331.455 118.25C331.602 118.25 331.727 118.3 331.832 118.4C331.938 118.5 331.992 118.621 331.992 118.761C331.992 118.902 331.938 119.022 331.832 119.123C331.727 119.223 331.602 119.273 331.455 119.273ZM333.961 122.047V125H333.207V120.091H333.936V120.858H334C334.115 120.609 334.289 120.408 334.524 120.257C334.758 120.104 335.061 120.027 335.431 120.027C335.764 120.027 336.055 120.095 336.304 120.232C336.553 120.366 336.747 120.57 336.886 120.845C337.024 121.118 337.093 121.463 337.093 121.881V125H336.339V121.932C336.339 121.546 336.239 121.246 336.039 121.031C335.838 120.813 335.563 120.705 335.214 120.705C334.973 120.705 334.758 120.757 334.568 120.861C334.381 120.966 334.233 121.118 334.124 121.318C334.016 121.518 333.961 121.761 333.961 122.047ZM340.607 120.091V120.73H338.062V120.091H340.607ZM338.804 118.915H339.558V123.594C339.558 123.807 339.589 123.967 339.651 124.073C339.715 124.178 339.796 124.248 339.894 124.284C339.994 124.318 340.099 124.335 340.21 124.335C340.293 124.335 340.362 124.331 340.415 124.322C340.468 124.312 340.511 124.303 340.543 124.297L340.696 124.974C340.645 124.994 340.574 125.013 340.482 125.032C340.39 125.053 340.274 125.064 340.134 125.064C339.92 125.064 339.712 125.018 339.507 124.926C339.305 124.835 339.136 124.695 339.002 124.508C338.87 124.32 338.804 124.084 338.804 123.798V118.915ZM343.747 125.102C343.274 125.102 342.866 124.998 342.523 124.789C342.182 124.578 341.919 124.284 341.733 123.907C341.55 123.528 341.458 123.087 341.458 122.584C341.458 122.081 341.55 121.638 341.733 121.254C341.919 120.869 342.176 120.568 342.507 120.353C342.839 120.136 343.227 120.027 343.67 120.027C343.926 120.027 344.178 120.07 344.427 120.155C344.677 120.24 344.904 120.379 345.108 120.57C345.313 120.76 345.476 121.011 345.597 121.325C345.719 121.638 345.779 122.023 345.779 122.482V122.801H341.995V122.149H345.012C345.012 121.872 344.957 121.625 344.846 121.408C344.737 121.19 344.582 121.019 344.379 120.893C344.179 120.767 343.943 120.705 343.67 120.705C343.369 120.705 343.11 120.779 342.89 120.928C342.673 121.075 342.506 121.267 342.388 121.504C342.271 121.74 342.213 121.994 342.213 122.264V122.699C342.213 123.07 342.276 123.384 342.404 123.642C342.534 123.897 342.714 124.092 342.944 124.227C343.175 124.359 343.442 124.425 343.747 124.425C343.945 124.425 344.124 124.397 344.284 124.342C344.445 124.284 344.585 124.199 344.702 124.086C344.819 123.971 344.91 123.828 344.974 123.658L345.703 123.862C345.626 124.109 345.497 124.327 345.316 124.514C345.135 124.7 344.911 124.844 344.645 124.949C344.378 125.051 344.079 125.102 343.747 125.102ZM346.927 125V120.091H347.655V120.832H347.706C347.796 120.589 347.958 120.392 348.192 120.241C348.427 120.09 348.691 120.014 348.985 120.014C349.04 120.014 349.11 120.015 349.193 120.017C349.276 120.02 349.339 120.023 349.381 120.027V120.794C349.356 120.788 349.297 120.778 349.205 120.765C349.116 120.75 349.021 120.743 348.921 120.743C348.682 120.743 348.469 120.793 348.282 120.893C348.096 120.991 347.949 121.127 347.841 121.302C347.734 121.475 347.681 121.672 347.681 121.893V125H346.927ZM352.807 125V120.091H353.561V125H352.807ZM353.19 119.273C353.043 119.273 352.916 119.223 352.81 119.123C352.705 119.022 352.653 118.902 352.653 118.761C352.653 118.621 352.705 118.5 352.81 118.4C352.916 118.3 353.043 118.25 353.19 118.25C353.337 118.25 353.463 118.3 353.567 118.4C353.674 118.5 353.727 118.621 353.727 118.761C353.727 118.902 353.674 119.022 353.567 119.123C353.463 119.223 353.337 119.273 353.19 119.273ZM358.42 121.19L357.742 121.382C357.699 121.269 357.637 121.159 357.553 121.053C357.472 120.944 357.362 120.855 357.221 120.784C357.08 120.714 356.9 120.679 356.681 120.679C356.381 120.679 356.13 120.748 355.93 120.887C355.732 121.023 355.633 121.197 355.633 121.408C355.633 121.595 355.701 121.743 355.837 121.852C355.974 121.961 356.187 122.051 356.476 122.124L357.205 122.303C357.644 122.409 357.971 122.572 358.186 122.792C358.401 123.009 358.509 123.289 358.509 123.632C358.509 123.913 358.428 124.165 358.266 124.386C358.106 124.608 357.883 124.783 357.595 124.911C357.307 125.038 356.973 125.102 356.591 125.102C356.091 125.102 355.676 124.994 355.348 124.776C355.02 124.559 354.812 124.241 354.725 123.824L355.441 123.645C355.509 123.909 355.638 124.107 355.828 124.239C356.019 124.371 356.27 124.438 356.579 124.438C356.93 124.438 357.209 124.363 357.416 124.214C357.625 124.062 357.729 123.881 357.729 123.67C357.729 123.5 357.67 123.357 357.55 123.242C357.431 123.125 357.248 123.038 357.001 122.98L356.182 122.788C355.733 122.682 355.403 122.517 355.192 122.293C354.983 122.067 354.878 121.785 354.878 121.446C354.878 121.169 354.956 120.924 355.112 120.711C355.269 120.498 355.483 120.331 355.754 120.209C356.027 120.088 356.336 120.027 356.681 120.027C357.167 120.027 357.548 120.134 357.825 120.347C358.104 120.56 358.302 120.841 358.42 121.19ZM360.399 122.047V125H359.644V120.091H360.373V120.858H360.437C360.552 120.609 360.727 120.408 360.961 120.257C361.196 120.104 361.498 120.027 361.869 120.027C362.201 120.027 362.492 120.095 362.741 120.232C362.991 120.366 363.185 120.57 363.323 120.845C363.462 121.118 363.531 121.463 363.531 121.881V125H362.777V121.932C362.777 121.546 362.676 121.246 362.476 121.031C362.276 120.813 362.001 120.705 361.652 120.705C361.411 120.705 361.196 120.757 361.006 120.861C360.818 120.966 360.67 121.118 360.562 121.318C360.453 121.518 360.399 121.761 360.399 122.047ZM365.574 118.455V119.03C365.574 119.205 365.542 119.391 365.478 119.589C365.416 119.785 365.325 119.976 365.203 120.161C365.084 120.344 364.939 120.504 364.768 120.641L364.359 120.308C364.494 120.116 364.61 119.917 364.708 119.711C364.808 119.502 364.858 119.279 364.858 119.043V118.455H365.574ZM368.837 120.091V120.73H366.293V120.091H368.837ZM367.034 118.915H367.789V123.594C367.789 123.807 367.82 123.967 367.881 124.073C367.945 124.178 368.026 124.248 368.124 124.284C368.224 124.318 368.33 124.335 368.441 124.335C368.524 124.335 368.592 124.331 368.645 124.322C368.699 124.312 368.741 124.303 368.773 124.297L368.926 124.974C368.875 124.994 368.804 125.013 368.712 125.032C368.621 125.053 368.505 125.064 368.364 125.064C368.151 125.064 367.942 125.018 367.738 124.926C367.535 124.835 367.367 124.695 367.233 124.508C367.1 124.32 367.034 124.084 367.034 123.798V118.915ZM372.503 126.841V120.091H373.232V120.871H373.321C373.376 120.786 373.453 120.677 373.551 120.545C373.651 120.411 373.794 120.291 373.979 120.187C374.167 120.08 374.42 120.027 374.74 120.027C375.153 120.027 375.518 120.13 375.833 120.337C376.148 120.544 376.395 120.837 376.571 121.216C376.748 121.595 376.837 122.043 376.837 122.558C376.837 123.078 376.748 123.529 376.571 123.91C376.395 124.289 376.15 124.583 375.836 124.792C375.523 124.999 375.162 125.102 374.753 125.102C374.438 125.102 374.185 125.05 373.995 124.946C373.806 124.839 373.66 124.719 373.558 124.585C373.455 124.448 373.376 124.335 373.321 124.246H373.257V126.841H372.503ZM373.244 122.545C373.244 122.916 373.299 123.243 373.407 123.527C373.516 123.808 373.675 124.028 373.884 124.188C374.092 124.346 374.348 124.425 374.651 124.425C374.966 124.425 375.229 124.342 375.44 124.175C375.653 124.007 375.813 123.781 375.919 123.498C376.028 123.212 376.082 122.895 376.082 122.545C376.082 122.2 376.029 121.889 375.923 121.612C375.818 121.333 375.659 121.113 375.446 120.951C375.235 120.787 374.97 120.705 374.651 120.705C374.344 120.705 374.086 120.782 373.877 120.938C373.668 121.091 373.511 121.306 373.404 121.583C373.298 121.858 373.244 122.179 373.244 122.545ZM377.987 125V120.091H378.716V120.832H378.767C378.857 120.589 379.018 120.392 379.253 120.241C379.487 120.09 379.751 120.014 380.045 120.014C380.101 120.014 380.17 120.015 380.253 120.017C380.336 120.02 380.399 120.023 380.442 120.027V120.794C380.416 120.788 380.358 120.778 380.266 120.765C380.176 120.75 380.082 120.743 379.982 120.743C379.743 120.743 379.53 120.793 379.342 120.893C379.157 120.991 379.01 121.127 378.901 121.302C378.795 121.475 378.741 121.672 378.741 121.893V125H377.987ZM381.336 125V120.091H382.09V125H381.336ZM381.719 119.273C381.572 119.273 381.446 119.223 381.339 119.123C381.235 119.022 381.182 118.902 381.182 118.761C381.182 118.621 381.235 118.5 381.339 118.4C381.446 118.3 381.572 118.25 381.719 118.25C381.866 118.25 381.992 118.3 382.097 118.4C382.203 118.5 382.256 118.621 382.256 118.761C382.256 118.902 382.203 119.022 382.097 119.123C381.992 119.223 381.866 119.273 381.719 119.273ZM384.226 122.047V125H383.472V120.091H384.2V120.858H384.264C384.379 120.609 384.554 120.408 384.788 120.257C385.023 120.104 385.325 120.027 385.696 120.027C386.028 120.027 386.319 120.095 386.569 120.232C386.818 120.366 387.012 120.57 387.15 120.845C387.289 121.118 387.358 121.463 387.358 121.881V125H386.604V121.932C386.604 121.546 386.504 121.246 386.303 121.031C386.103 120.813 385.828 120.705 385.479 120.705C385.238 120.705 385.023 120.757 384.833 120.861C384.646 120.966 384.498 121.118 384.389 121.318C384.28 121.518 384.226 121.761 384.226 122.047ZM390.871 120.091V120.73H388.327V120.091H390.871ZM389.069 118.915H389.823V123.594C389.823 123.807 389.854 123.967 389.916 124.073C389.979 124.178 390.06 124.248 390.158 124.284C390.259 124.318 390.364 124.335 390.475 124.335C390.558 124.335 390.626 124.331 390.679 124.322C390.733 124.312 390.775 124.303 390.807 124.297L390.961 124.974C390.91 124.994 390.838 125.013 390.747 125.032C390.655 125.053 390.539 125.064 390.398 125.064C390.185 125.064 389.976 125.018 389.772 124.926C389.569 124.835 389.401 124.695 389.267 124.508C389.135 124.32 389.069 124.084 389.069 123.798V118.915ZM392.006 125V120.091H392.76V125H392.006ZM392.389 119.273C392.242 119.273 392.116 119.223 392.009 119.123C391.905 119.022 391.852 118.902 391.852 118.761C391.852 118.621 391.905 118.5 392.009 118.4C392.116 118.3 392.242 118.25 392.389 118.25C392.536 118.25 392.662 118.3 392.766 118.4C392.873 118.5 392.926 118.621 392.926 118.761C392.926 118.902 392.873 119.022 392.766 119.123C392.662 119.223 392.536 119.273 392.389 119.273ZM394.896 122.047V125H394.142V120.091H394.87V120.858H394.934C395.049 120.609 395.224 120.408 395.458 120.257C395.693 120.104 395.995 120.027 396.366 120.027C396.698 120.027 396.989 120.095 397.238 120.232C397.488 120.366 397.682 120.57 397.82 120.845C397.959 121.118 398.028 121.463 398.028 121.881V125H397.274V121.932C397.274 121.546 397.173 121.246 396.973 121.031C396.773 120.813 396.498 120.705 396.149 120.705C395.908 120.705 395.693 120.757 395.503 120.861C395.316 120.966 395.167 121.118 395.059 121.318C394.95 121.518 394.896 121.761 394.896 122.047ZM401.388 126.943C401.023 126.943 400.71 126.896 400.448 126.803C400.186 126.711 399.968 126.589 399.793 126.438C399.62 126.289 399.483 126.129 399.381 125.959L399.981 125.537C400.05 125.626 400.136 125.729 400.24 125.844C400.345 125.961 400.487 126.062 400.669 126.147C400.852 126.235 401.092 126.278 401.388 126.278C401.784 126.278 402.111 126.183 402.369 125.991C402.627 125.799 402.756 125.499 402.756 125.089V124.092H402.692C402.636 124.182 402.557 124.293 402.455 124.425C402.355 124.555 402.21 124.671 402.021 124.773C401.833 124.873 401.579 124.923 401.26 124.923C400.864 124.923 400.508 124.83 400.192 124.642C399.879 124.455 399.631 124.182 399.448 123.824C399.267 123.466 399.176 123.031 399.176 122.52C399.176 122.017 399.264 121.579 399.441 121.206C399.618 120.831 399.864 120.542 400.18 120.337C400.495 120.13 400.859 120.027 401.273 120.027C401.592 120.027 401.846 120.08 402.033 120.187C402.223 120.291 402.368 120.411 402.468 120.545C402.57 120.677 402.649 120.786 402.704 120.871H402.781V120.091H403.51V125.141C403.51 125.562 403.414 125.906 403.222 126.17C403.033 126.436 402.777 126.631 402.455 126.755C402.136 126.88 401.78 126.943 401.388 126.943ZM401.362 124.246C401.665 124.246 401.92 124.176 402.129 124.038C402.338 123.9 402.497 123.7 402.605 123.44C402.714 123.18 402.768 122.869 402.768 122.507C402.768 122.153 402.715 121.841 402.609 121.571C402.502 121.3 402.344 121.088 402.136 120.935C401.927 120.781 401.669 120.705 401.362 120.705C401.043 120.705 400.776 120.786 400.563 120.947C400.352 121.109 400.193 121.327 400.087 121.599C399.983 121.872 399.93 122.175 399.93 122.507C399.93 122.848 399.984 123.15 400.09 123.412C400.199 123.672 400.359 123.876 400.57 124.025C400.783 124.172 401.047 124.246 401.362 124.246ZM409.416 125.102C408.956 125.102 408.56 124.994 408.227 124.776C407.895 124.559 407.639 124.26 407.46 123.878C407.281 123.497 407.192 123.061 407.192 122.571C407.192 122.072 407.283 121.632 407.467 121.251C407.652 120.868 407.91 120.568 408.24 120.353C408.572 120.136 408.96 120.027 409.403 120.027C409.748 120.027 410.06 120.091 410.337 120.219C410.614 120.347 410.84 120.526 411.017 120.756C411.194 120.986 411.304 121.254 411.347 121.561H410.592C410.535 121.337 410.407 121.139 410.209 120.967C410.013 120.792 409.748 120.705 409.416 120.705C409.122 120.705 408.864 120.781 408.643 120.935C408.423 121.086 408.252 121.3 408.128 121.577C408.007 121.852 407.946 122.175 407.946 122.545C407.946 122.925 408.006 123.255 408.125 123.536C408.246 123.817 408.417 124.036 408.636 124.191C408.858 124.347 409.118 124.425 409.416 124.425C409.612 124.425 409.79 124.391 409.95 124.322C410.11 124.254 410.245 124.156 410.356 124.028C410.467 123.901 410.545 123.747 410.592 123.568H411.347C411.304 123.858 411.198 124.119 411.03 124.351C410.864 124.581 410.643 124.765 410.369 124.901C410.096 125.035 409.778 125.102 409.416 125.102ZM414.443 125.102C414 125.102 413.611 124.997 413.277 124.786C412.945 124.575 412.685 124.28 412.497 123.901C412.312 123.521 412.219 123.078 412.219 122.571C412.219 122.06 412.312 121.613 412.497 121.232C412.685 120.85 412.945 120.554 413.277 120.343C413.611 120.132 414 120.027 414.443 120.027C414.887 120.027 415.274 120.132 415.607 120.343C415.941 120.554 416.201 120.85 416.387 121.232C416.574 121.613 416.668 122.06 416.668 122.571C416.668 123.078 416.574 123.521 416.387 123.901C416.201 124.28 415.941 124.575 415.607 124.786C415.274 124.997 414.887 125.102 414.443 125.102ZM414.443 124.425C414.78 124.425 415.057 124.338 415.274 124.166C415.492 123.993 415.653 123.766 415.757 123.485C415.861 123.204 415.914 122.899 415.914 122.571C415.914 122.243 415.861 121.937 415.757 121.654C415.653 121.37 415.492 121.141 415.274 120.967C415.057 120.792 414.78 120.705 414.443 120.705C414.107 120.705 413.83 120.792 413.612 120.967C413.395 121.141 413.234 121.37 413.13 121.654C413.025 121.937 412.973 122.243 412.973 122.571C412.973 122.899 413.025 123.204 413.13 123.485C413.234 123.766 413.395 123.993 413.612 124.166C413.83 124.338 414.107 124.425 414.443 124.425ZM418.574 118.455V125H417.819V118.455H418.574ZM421.949 125.102C421.506 125.102 421.117 124.997 420.783 124.786C420.45 124.575 420.19 124.28 420.003 123.901C419.818 123.521 419.725 123.078 419.725 122.571C419.725 122.06 419.818 121.613 420.003 121.232C420.19 120.85 420.45 120.554 420.783 120.343C421.117 120.132 421.506 120.027 421.949 120.027C422.392 120.027 422.78 120.132 423.113 120.343C423.447 120.554 423.707 120.85 423.892 121.232C424.08 121.613 424.174 122.06 424.174 122.571C424.174 123.078 424.08 123.521 423.892 123.901C423.707 124.28 423.447 124.575 423.113 124.786C422.78 124.997 422.392 125.102 421.949 125.102ZM421.949 124.425C422.286 124.425 422.563 124.338 422.78 124.166C422.998 123.993 423.158 123.766 423.263 123.485C423.367 123.204 423.419 122.899 423.419 122.571C423.419 122.243 423.367 121.937 423.263 121.654C423.158 121.37 422.998 121.141 422.78 120.967C422.563 120.792 422.286 120.705 421.949 120.705C421.613 120.705 421.336 120.792 421.118 120.967C420.901 121.141 420.74 121.37 420.636 121.654C420.531 121.937 420.479 122.243 420.479 122.571C420.479 122.899 420.531 123.204 420.636 123.485C420.74 123.766 420.901 123.993 421.118 124.166C421.336 124.338 421.613 124.425 421.949 124.425ZM425.325 125V120.091H426.054V120.832H426.105C426.194 120.589 426.356 120.392 426.591 120.241C426.825 120.09 427.089 120.014 427.383 120.014C427.439 120.014 427.508 120.015 427.591 120.017C427.674 120.02 427.737 120.023 427.78 120.027V120.794C427.754 120.788 427.695 120.778 427.604 120.765C427.514 120.75 427.42 120.743 427.319 120.743C427.081 120.743 426.868 120.793 426.68 120.893C426.495 120.991 426.348 121.127 426.239 121.302C426.133 121.475 426.079 121.672 426.079 121.893V125H425.325Z" fill="black"/>
<g id="Logo_3">
<rect id="Rectangle 4_3" x="269" y="103" width="25" height="25" rx="5" fill="#68D06E"/>
<ellipse id="Ellipse 4" cx="281.5" cy="115" rx="8.5" ry="7" fill="#ECECEC"/>
<path id="Vector 1" d="M275 122.5L279 120.5L275.5 118.5L275 122.5Z" fill="#ECECEC"/>
</g>
</g>
</g>
</svg>
