<svg width="186" height="39" viewBox="0 0 186 39" fill="none" xmlns="http://www.w3.org/2000/svg">
<g id="Notification 1">
<rect id="Rectangle 3" width="186" height="39" rx="19.5" fill="#EAEAEA"/>
<path id="John Doe" d="M52.1896 9.45455H53.5575V14.0185C53.5575 14.4403 53.4627 14.8068 53.2731 15.1179C53.0856 15.429 52.8246 15.6687 52.4901 15.837C52.1555 16.0053 51.7667 16.0895 51.3235 16.0895C50.9293 16.0895 50.5714 16.0202 50.2496 15.8817C49.93 15.7411 49.6765 15.5281 49.489 15.2425C49.3015 14.9549 49.2088 14.5937 49.2109 14.1591H50.5884C50.5927 14.3317 50.6278 14.4798 50.6939 14.6033C50.7621 14.7248 50.8548 14.8185 50.9719 14.8846C51.0913 14.9485 51.2319 14.9805 51.3938 14.9805C51.5643 14.9805 51.7081 14.9442 51.8253 14.8718C51.9446 14.7972 52.0352 14.6886 52.0969 14.5458C52.1587 14.4031 52.1896 14.2273 52.1896 14.0185V9.45455ZM56.8942 16.0959C56.3977 16.0959 55.9684 15.9904 55.6062 15.7795C55.2461 15.5664 54.968 15.2702 54.772 14.891C54.576 14.5096 54.478 14.0675 54.478 13.5646C54.478 13.0575 54.576 12.6143 54.772 12.2351C54.968 11.8537 55.2461 11.5575 55.6062 11.3466C55.9684 11.1335 56.3977 11.027 56.8942 11.027C57.3906 11.027 57.8189 11.1335 58.179 11.3466C58.5412 11.5575 58.8203 11.8537 59.0163 12.2351C59.2124 12.6143 59.3104 13.0575 59.3104 13.5646C59.3104 14.0675 59.2124 14.5096 59.0163 14.891C58.8203 15.2702 58.5412 15.5664 58.179 15.7795C57.8189 15.9904 57.3906 16.0959 56.8942 16.0959ZM56.9006 15.0412C57.1264 15.0412 57.315 14.9773 57.4663 14.8494C57.6175 14.7195 57.7315 14.5426 57.8082 14.3189C57.8871 14.0952 57.9265 13.8406 57.9265 13.555C57.9265 13.2695 57.8871 13.0149 57.8082 12.7912C57.7315 12.5675 57.6175 12.3906 57.4663 12.2607C57.315 12.1307 57.1264 12.0657 56.9006 12.0657C56.6726 12.0657 56.4808 12.1307 56.3253 12.2607C56.1719 12.3906 56.0558 12.5675 55.9769 12.7912C55.9002 13.0149 55.8619 13.2695 55.8619 13.555C55.8619 13.8406 55.9002 14.0952 55.9769 14.3189C56.0558 14.5426 56.1719 14.7195 56.3253 14.8494C56.4808 14.9773 56.6726 15.0412 56.9006 15.0412ZM61.5572 13.1619V16H60.1957V9.45455H61.5188V11.957H61.5763C61.6871 11.6673 61.8661 11.4403 62.1133 11.2763C62.3604 11.1101 62.6705 11.027 63.0433 11.027C63.3842 11.027 63.6815 11.1016 63.935 11.2507C64.1907 11.3977 64.3888 11.6097 64.5295 11.8867C64.6722 12.1616 64.7425 12.4908 64.7404 12.8743V16H63.3789V13.1172C63.381 12.8146 63.3043 12.5792 63.1488 12.4109C62.9954 12.2425 62.7802 12.1584 62.5032 12.1584C62.3178 12.1584 62.1538 12.1978 62.011 12.2766C61.8704 12.3555 61.7596 12.4705 61.6786 12.6218C61.5998 12.771 61.5593 12.951 61.5572 13.1619ZM67.1734 13.1619V16H65.8119V11.0909H67.1095V11.957H67.167C67.2757 11.6715 67.4578 11.4457 67.7135 11.2795C67.9692 11.1112 68.2792 11.027 68.6436 11.027C68.9845 11.027 69.2817 11.1016 69.5352 11.2507C69.7888 11.3999 69.9859 11.6129 70.1265 11.8899C70.2671 12.1648 70.3374 12.4929 70.3374 12.8743V16H68.9759V13.1172C68.9781 12.8168 68.9014 12.5824 68.7458 12.4141C68.5903 12.2436 68.3762 12.1584 68.1034 12.1584C67.9202 12.1584 67.7583 12.1978 67.6176 12.2766C67.4791 12.3555 67.3705 12.4705 67.2916 12.6218C67.2149 12.771 67.1755 12.951 67.1734 13.1619ZM75.8394 16H73.5191V9.45455H75.8586C76.517 9.45455 77.0837 9.58558 77.5589 9.84766C78.034 10.1076 78.3994 10.4815 78.6551 10.9695C78.9129 11.4574 79.0418 12.0412 79.0418 12.7209C79.0418 13.4027 78.9129 13.9886 78.6551 14.4787C78.3994 14.9687 78.0319 15.3448 77.5525 15.6069C77.0752 15.869 76.5042 16 75.8394 16ZM74.903 14.8143H75.7819C76.191 14.8143 76.5351 14.7418 76.8142 14.5969C77.0954 14.4499 77.3064 14.223 77.447 13.9162C77.5898 13.6072 77.6611 13.2088 77.6611 12.7209C77.6611 12.2372 77.5898 11.842 77.447 11.5352C77.3064 11.2283 77.0965 11.0025 76.8174 10.8576C76.5383 10.7127 76.1942 10.6403 75.7851 10.6403H74.903V14.8143ZM82.2594 16.0959C81.763 16.0959 81.3336 15.9904 80.9714 15.7795C80.6113 15.5664 80.3333 15.2702 80.1373 14.891C79.9412 14.5096 79.8432 14.0675 79.8432 13.5646C79.8432 13.0575 79.9412 12.6143 80.1373 12.2351C80.3333 11.8537 80.6113 11.5575 80.9714 11.3466C81.3336 11.1335 81.763 11.027 82.2594 11.027C82.7559 11.027 83.1841 11.1335 83.5442 11.3466C83.9064 11.5575 84.1855 11.8537 84.3816 12.2351C84.5776 12.6143 84.6756 13.0575 84.6756 13.5646C84.6756 14.0675 84.5776 14.5096 84.3816 14.891C84.1855 15.2702 83.9064 15.5664 83.5442 15.7795C83.1841 15.9904 82.7559 16.0959 82.2594 16.0959ZM82.2658 15.0412C82.4917 15.0412 82.6802 14.9773 82.8315 14.8494C82.9828 14.7195 83.0968 14.5426 83.1735 14.3189C83.2523 14.0952 83.2917 13.8406 83.2917 13.555C83.2917 13.2695 83.2523 13.0149 83.1735 12.7912C83.0968 12.5675 82.9828 12.3906 82.8315 12.2607C82.6802 12.1307 82.4917 12.0657 82.2658 12.0657C82.0378 12.0657 81.8461 12.1307 81.6905 12.2607C81.5371 12.3906 81.421 12.5675 81.3422 12.7912C81.2654 13.0149 81.2271 13.2695 81.2271 13.555C81.2271 13.8406 81.2654 14.0952 81.3422 14.3189C81.421 14.5426 81.5371 14.7195 81.6905 14.8494C81.8461 14.9773 82.0378 15.0412 82.2658 15.0412ZM87.7981 16.0959C87.2931 16.0959 86.8585 15.9936 86.4941 15.7891C86.1319 15.5824 85.8528 15.2905 85.6568 14.9134C85.4608 14.5341 85.3627 14.0856 85.3627 13.5678C85.3627 13.0629 85.4608 12.6197 85.6568 12.2383C85.8528 11.8569 86.1287 11.5597 86.4846 11.3466C86.8425 11.1335 87.2623 11.027 87.7438 11.027C88.0676 11.027 88.3691 11.0792 88.6483 11.1836C88.9295 11.2859 89.1745 11.4403 89.3833 11.647C89.5943 11.8537 89.7583 12.1136 89.8755 12.4268C89.9927 12.7379 90.0513 13.1023 90.0513 13.5199V13.8938H85.9061V13.0501H88.7697C88.7697 12.854 88.7271 12.6804 88.6419 12.5291C88.5566 12.3778 88.4384 12.2596 88.2871 12.1744C88.138 12.087 87.9643 12.0433 87.7662 12.0433C87.5595 12.0433 87.3762 12.0913 87.2164 12.1871C87.0588 12.2809 86.9352 12.4077 86.8457 12.5675C86.7562 12.7251 86.7104 12.9009 86.7083 13.0948V13.897C86.7083 14.1399 86.753 14.3498 86.8425 14.5266C86.9341 14.7035 87.063 14.8398 87.2292 14.9357C87.3954 15.0316 87.5925 15.0795 87.8205 15.0795C87.9718 15.0795 88.1103 15.0582 88.236 15.0156C88.3617 14.973 88.4693 14.9091 88.5588 14.8239C88.6483 14.7386 88.7164 14.6342 88.7633 14.5107L90.0226 14.5938C89.9586 14.8963 89.8276 15.1605 89.6294 15.3864C89.4334 15.6101 89.1799 15.7848 88.8688 15.9105C88.5598 16.0341 88.2029 16.0959 87.7981 16.0959Z" fill="black"/>
<path id="Hey, got a minute?" d="M49.7926 29V22.4545H50.5852V25.3693H54.0753V22.4545H54.8679V29H54.0753V26.0724H50.5852V29H49.7926ZM58.4107 29.1023C57.9377 29.1023 57.5297 28.9979 57.1866 28.7891C56.8457 28.5781 56.5826 28.2841 56.3972 27.907C56.214 27.5277 56.1223 27.0866 56.1223 26.5838C56.1223 26.081 56.214 25.6378 56.3972 25.2543C56.5826 24.8686 56.8404 24.5682 57.1706 24.353C57.503 24.1357 57.8908 24.027 58.334 24.027C58.5897 24.027 58.8422 24.0696 59.0914 24.1548C59.3407 24.2401 59.5676 24.3786 59.7722 24.5703C59.9767 24.7599 60.1397 25.0114 60.2612 25.3246C60.3826 25.6378 60.4434 26.0234 60.4434 26.4815V26.8011H56.6593V26.1491H59.6763C59.6763 25.8722 59.6209 25.625 59.5101 25.4077C59.4015 25.1903 59.2459 25.0188 59.0435 24.8931C58.8432 24.7674 58.6067 24.7045 58.334 24.7045C58.0336 24.7045 57.7736 24.7791 57.5542 24.9283C57.3368 25.0753 57.1696 25.267 57.0524 25.5036C56.9352 25.7401 56.8766 25.9936 56.8766 26.2642V26.6989C56.8766 27.0696 56.9405 27.3839 57.0684 27.6417C57.1983 27.8974 57.3784 28.0923 57.6085 28.2266C57.8386 28.3587 58.106 28.4247 58.4107 28.4247C58.6088 28.4247 58.7878 28.397 58.9476 28.3416C59.1096 28.2841 59.2491 28.1989 59.3663 28.0859C59.4835 27.9709 59.574 27.8281 59.638 27.6577L60.3667 27.8622C60.29 28.1094 60.161 28.3267 59.9799 28.5142C59.7988 28.6996 59.5751 28.8445 59.3088 28.9489C59.0424 29.0511 58.7431 29.1023 58.4107 29.1023ZM61.9271 30.8409C61.7993 30.8409 61.6853 30.8303 61.5851 30.8089C61.485 30.7898 61.4157 30.7706 61.3774 30.7514L61.5692 30.0866C61.7524 30.1335 61.9143 30.1506 62.055 30.1378C62.1956 30.125 62.3202 30.0621 62.4289 29.9492C62.5397 29.8384 62.6409 29.6584 62.7325 29.4091L62.8731 29.0256L61.0578 24.0909H61.876L63.2311 28.0028H63.2822L64.6373 24.0909H65.4555L63.3717 29.7159C63.278 29.9695 63.1618 30.1793 63.0233 30.3455C62.8849 30.5138 62.724 30.6385 62.5407 30.7195C62.3596 30.8004 62.1551 30.8409 61.9271 30.8409ZM67.2685 28.1051L67.2173 28.4503C67.1811 28.6932 67.1257 28.9531 67.0511 29.2301C66.9787 29.5071 66.9031 29.7681 66.8242 30.0131C66.7454 30.2582 66.6804 30.4531 66.6293 30.598H66.054C66.0817 30.4616 66.1179 30.2816 66.1626 30.0579C66.2074 29.8342 66.2521 29.5838 66.2969 29.3068C66.3438 29.032 66.3821 28.7507 66.4119 28.4631L66.4503 28.1051H67.2685ZM73.1787 30.9432C72.8144 30.9432 72.5012 30.8963 72.2391 30.8026C71.977 30.7109 71.7586 30.5895 71.5839 30.4382C71.4113 30.2891 71.2739 30.1293 71.1716 29.9588L71.7725 29.5369C71.8406 29.6264 71.9269 29.7287 72.0313 29.8438C72.1357 29.9609 72.2785 30.0621 72.4596 30.1474C72.6428 30.2347 72.8825 30.2784 73.1787 30.2784C73.575 30.2784 73.9021 30.1825 74.1599 29.9908C74.4177 29.799 74.5466 29.4986 74.5466 29.0895V28.0923H74.4827C74.4273 28.1818 74.3485 28.2926 74.2462 28.4247C74.146 28.5547 74.0012 28.6708 73.8115 28.7731C73.624 28.8732 73.3705 28.9233 73.0509 28.9233C72.6546 28.9233 72.2987 28.8295 71.9834 28.642C71.6702 28.4545 71.422 28.1818 71.2387 27.8239C71.0576 27.4659 70.9671 27.0312 70.9671 26.5199C70.9671 26.017 71.0555 25.5792 71.2323 25.2063C71.4092 24.8313 71.6553 24.5415 71.9706 24.337C72.286 24.1303 72.6503 24.027 73.0637 24.027C73.3833 24.027 73.6368 24.0803 73.8243 24.1868C74.0139 24.2912 74.1588 24.4105 74.259 24.5447C74.3612 24.6768 74.4401 24.7855 74.4955 24.8707H74.5722V24.0909H75.3009V29.1406C75.3009 29.5625 75.205 29.9055 75.0132 30.1697C74.8236 30.4361 74.5679 30.631 74.2462 30.7546C73.9266 30.8803 73.5708 30.9432 73.1787 30.9432ZM73.1531 28.2457C73.4557 28.2457 73.7114 28.1765 73.9202 28.038C74.129 27.8995 74.2877 27.7003 74.3964 27.4403C74.5051 27.1804 74.5594 26.8693 74.5594 26.5071C74.5594 26.1534 74.5061 25.8413 74.3996 25.5707C74.2931 25.3001 74.1354 25.0881 73.9266 24.9347C73.7178 24.7812 73.46 24.7045 73.1531 24.7045C72.8335 24.7045 72.5672 24.7855 72.3541 24.9474C72.1432 25.1094 71.9845 25.3267 71.8779 25.5994C71.7735 25.8722 71.7213 26.1747 71.7213 26.5071C71.7213 26.848 71.7746 27.1495 71.8811 27.4116C71.9898 27.6715 72.1496 27.8761 72.3605 28.0252C72.5736 28.1722 72.8378 28.2457 73.1531 28.2457ZM78.6759 29.1023C78.2327 29.1023 77.8438 28.9968 77.5093 28.7859C77.1769 28.5749 76.917 28.2798 76.7295 27.9006C76.5441 27.5213 76.4514 27.0781 76.4514 26.571C76.4514 26.0597 76.5441 25.6133 76.7295 25.2319C76.917 24.8505 77.1769 24.5543 77.5093 24.3434C77.8438 24.1325 78.2327 24.027 78.6759 24.027C79.1191 24.027 79.5068 24.1325 79.8392 24.3434C80.1737 24.5543 80.4337 24.8505 80.6191 25.2319C80.8066 25.6133 80.9003 26.0597 80.9003 26.571C80.9003 27.0781 80.8066 27.5213 80.6191 27.9006C80.4337 28.2798 80.1737 28.5749 79.8392 28.7859C79.5068 28.9968 79.1191 29.1023 78.6759 29.1023ZM78.6759 28.4247C79.0125 28.4247 79.2895 28.3384 79.5068 28.1658C79.7242 27.9933 79.885 27.7663 79.9894 27.4851C80.0938 27.2038 80.146 26.8991 80.146 26.571C80.146 26.2429 80.0938 25.9371 79.9894 25.6538C79.885 25.3704 79.7242 25.1413 79.5068 24.9666C79.2895 24.7919 79.0125 24.7045 78.6759 24.7045C78.3392 24.7045 78.0622 24.7919 77.8449 24.9666C77.6276 25.1413 77.4667 25.3704 77.3623 25.6538C77.2579 25.9371 77.2057 26.2429 77.2057 26.571C77.2057 26.8991 77.2579 27.2038 77.3623 27.4851C77.4667 27.7663 77.6276 27.9933 77.8449 28.1658C78.0622 28.3384 78.3392 28.4247 78.6759 28.4247ZM84.1866 24.0909V24.7301H81.6426V24.0909H84.1866ZM82.3841 22.9148H83.1383V27.5938C83.1383 27.8068 83.1692 27.9666 83.231 28.0732C83.2949 28.1776 83.3759 28.2479 83.4739 28.2841C83.574 28.3182 83.6795 28.3352 83.7903 28.3352C83.8734 28.3352 83.9416 28.331 83.9949 28.3224C84.0481 28.3118 84.0907 28.3033 84.1227 28.2969L84.2761 28.9744C84.225 28.9936 84.1536 29.0128 84.062 29.032C83.9703 29.0533 83.8542 29.0639 83.7136 29.0639C83.5005 29.0639 83.2917 29.0181 83.0872 28.9265C82.8848 28.8349 82.7164 28.6953 82.5822 28.5078C82.4501 28.3203 82.3841 28.0838 82.3841 27.7983V22.9148ZM89.2971 29.1151C88.986 29.1151 88.7037 29.0565 88.4501 28.9393C88.1966 28.82 87.9952 28.6484 87.8461 28.4247C87.6969 28.1989 87.6223 27.9261 87.6223 27.6065C87.6223 27.3253 87.6777 27.0973 87.7885 26.9226C87.8993 26.7457 88.0474 26.6072 88.2328 26.5071C88.4181 26.407 88.6227 26.3324 88.8464 26.2834C89.0723 26.2322 89.2992 26.1918 89.5272 26.1619C89.8255 26.1236 90.0673 26.0948 90.2527 26.0756C90.4402 26.0543 90.5765 26.0192 90.6618 25.9702C90.7491 25.9212 90.7928 25.8359 90.7928 25.7145V25.6889C90.7928 25.3736 90.7065 25.1286 90.5339 24.9538C90.3635 24.7791 90.1046 24.6918 89.7573 24.6918C89.3972 24.6918 89.1149 24.7706 88.9103 24.9283C88.7058 25.0859 88.562 25.2543 88.4789 25.4332L87.763 25.1776C87.8908 24.8793 88.0613 24.647 88.2743 24.4808C88.4895 24.3125 88.7239 24.1953 88.9775 24.1293C89.2331 24.0611 89.4846 24.027 89.7317 24.027C89.8894 24.027 90.0705 24.0462 90.275 24.0845C90.4817 24.1207 90.6809 24.1964 90.8727 24.3114C91.0666 24.4265 91.2275 24.6001 91.3553 24.8324C91.4831 25.0646 91.5471 25.3757 91.5471 25.7656V29H90.7928V28.3352H90.7544C90.7033 28.4418 90.6181 28.5558 90.4988 28.6772C90.3794 28.7987 90.2207 28.902 90.0225 28.9872C89.8244 29.0724 89.5826 29.1151 89.2971 29.1151ZM89.4121 28.4375C89.7104 28.4375 89.9618 28.3789 90.1664 28.2617C90.373 28.1445 90.5286 27.9933 90.633 27.8079C90.7395 27.6225 90.7928 27.4276 90.7928 27.223V26.5327C90.7608 26.571 90.6905 26.6062 90.5819 26.6381C90.4753 26.668 90.3517 26.6946 90.2111 26.718C90.0726 26.7393 89.9373 26.7585 89.8052 26.7756C89.6752 26.7905 89.5698 26.8033 89.4888 26.8139C89.2928 26.8395 89.1096 26.881 88.9391 26.9386C88.7708 26.994 88.6344 27.0781 88.53 27.1911C88.4277 27.3018 88.3766 27.4531 88.3766 27.6449C88.3766 27.907 88.4735 28.1051 88.6674 28.2393C88.8635 28.3714 89.1117 28.4375 89.4121 28.4375ZM95.455 29V24.0909H96.1837V24.858H96.2476C96.3499 24.5959 96.515 24.3924 96.743 24.2475C96.971 24.1005 97.2448 24.027 97.5644 24.027C97.8882 24.027 98.1578 24.1005 98.373 24.2475C98.5903 24.3924 98.7597 24.5959 98.8811 24.858H98.9323C99.058 24.6044 99.2465 24.4031 99.498 24.2539C99.7494 24.1026 100.051 24.027 100.402 24.027C100.841 24.027 101.2 24.1644 101.479 24.4393C101.759 24.712 101.898 25.1371 101.898 25.7145V29H101.144V25.7145C101.144 25.3523 101.045 25.0934 100.847 24.9379C100.649 24.7823 100.415 24.7045 100.147 24.7045C99.8016 24.7045 99.5342 24.8089 99.3445 25.0178C99.1549 25.2244 99.0601 25.4865 99.0601 25.804V29H98.2931V25.6378C98.2931 25.3587 98.2025 25.1339 98.0214 24.9634C97.8403 24.7908 97.607 24.7045 97.3215 24.7045C97.1254 24.7045 96.9422 24.7567 96.7718 24.8612C96.6034 24.9656 96.4671 25.1104 96.3627 25.2958C96.2604 25.479 96.2093 25.6911 96.2093 25.9318V29H95.455ZM103.277 29V24.0909H104.032V29H103.277ZM103.661 23.2727C103.514 23.2727 103.387 23.2227 103.28 23.1225C103.176 23.0224 103.124 22.902 103.124 22.7614C103.124 22.6207 103.176 22.5004 103.28 22.4002C103.387 22.3001 103.514 22.25 103.661 22.25C103.808 22.25 103.934 22.3001 104.038 22.4002C104.144 22.5004 104.198 22.6207 104.198 22.7614C104.198 22.902 104.144 23.0224 104.038 23.1225C103.934 23.2227 103.808 23.2727 103.661 23.2727ZM106.167 26.0469V29H105.413V24.0909H106.142V24.858H106.206C106.321 24.6087 106.495 24.4084 106.73 24.2571C106.964 24.1037 107.267 24.027 107.637 24.027C107.97 24.027 108.261 24.0952 108.51 24.2315C108.759 24.3658 108.953 24.5703 109.092 24.8452C109.23 25.1179 109.299 25.4631 109.299 25.8807V29H108.545V25.9318C108.545 25.5462 108.445 25.2457 108.245 25.0305C108.044 24.8132 107.77 24.7045 107.42 24.7045C107.179 24.7045 106.964 24.7567 106.775 24.8612C106.587 24.9656 106.439 25.1179 106.33 25.3182C106.222 25.5185 106.167 25.7614 106.167 26.0469ZM113.771 26.9929V24.0909H114.526V29H113.771V28.169H113.72C113.605 28.4183 113.426 28.6303 113.183 28.805C112.94 28.9776 112.634 29.0639 112.263 29.0639C111.956 29.0639 111.683 28.9968 111.445 28.8626C111.206 28.7262 111.019 28.5217 110.882 28.2489C110.746 27.9741 110.678 27.6278 110.678 27.2102V24.0909H111.432V27.1591C111.432 27.517 111.532 27.8026 111.732 28.0156C111.935 28.2287 112.193 28.3352 112.506 28.3352C112.693 28.3352 112.884 28.2873 113.078 28.1914C113.274 28.0955 113.438 27.9485 113.57 27.7504C113.704 27.5522 113.771 27.2997 113.771 26.9929ZM118.042 24.0909V24.7301H115.498V24.0909H118.042ZM116.24 22.9148H116.994V27.5938C116.994 27.8068 117.025 27.9666 117.086 28.0732C117.15 28.1776 117.231 28.2479 117.329 28.2841C117.43 28.3182 117.535 28.3352 117.646 28.3352C117.729 28.3352 117.797 28.331 117.85 28.3224C117.904 28.3118 117.946 28.3033 117.978 28.2969L118.132 28.9744C118.08 28.9936 118.009 29.0128 117.917 29.032C117.826 29.0533 117.71 29.0639 117.569 29.0639C117.356 29.0639 117.147 29.0181 116.943 28.9265C116.74 28.8349 116.572 28.6953 116.438 28.5078C116.306 28.3203 116.24 28.0838 116.24 27.7983V22.9148ZM121.182 29.1023C120.709 29.1023 120.301 28.9979 119.958 28.7891C119.617 28.5781 119.354 28.2841 119.169 27.907C118.985 27.5277 118.894 27.0866 118.894 26.5838C118.894 26.081 118.985 25.6378 119.169 25.2543C119.354 24.8686 119.612 24.5682 119.942 24.353C120.275 24.1357 120.662 24.027 121.105 24.027C121.361 24.027 121.614 24.0696 121.863 24.1548C122.112 24.2401 122.339 24.3786 122.544 24.5703C122.748 24.7599 122.911 25.0114 123.033 25.3246C123.154 25.6378 123.215 26.0234 123.215 26.4815V26.8011H119.431V26.1491H122.448C122.448 25.8722 122.392 25.625 122.282 25.4077C122.173 25.1903 122.017 25.0188 121.815 24.8931C121.615 24.7674 121.378 24.7045 121.105 24.7045C120.805 24.7045 120.545 24.7791 120.326 24.9283C120.108 25.0753 119.941 25.267 119.824 25.5036C119.707 25.7401 119.648 25.9936 119.648 26.2642V26.6989C119.648 27.0696 119.712 27.3839 119.84 27.6417C119.97 27.8974 120.15 28.0923 120.38 28.2266C120.61 28.3587 120.877 28.4247 121.182 28.4247C121.38 28.4247 121.559 28.397 121.719 28.3416C121.881 28.2841 122.021 28.1989 122.138 28.0859C122.255 27.9709 122.346 27.8281 122.409 27.6577L123.138 27.8622C123.061 28.1094 122.933 28.3267 122.751 28.5142C122.57 28.6996 122.347 28.8445 122.08 28.9489C121.814 29.0511 121.515 29.1023 121.182 29.1023ZM125.347 27.1591V27.1207C125.351 26.7138 125.393 26.3899 125.474 26.1491C125.555 25.9084 125.67 25.7134 125.82 25.5643C125.969 25.4151 126.148 25.2777 126.357 25.152C126.482 25.0753 126.595 24.9847 126.695 24.8803C126.795 24.7738 126.874 24.6513 126.932 24.5128C126.991 24.3743 127.021 24.2209 127.021 24.0526C127.021 23.8437 126.972 23.6626 126.874 23.5092C126.776 23.3558 126.645 23.2376 126.481 23.1545C126.317 23.0714 126.135 23.0298 125.935 23.0298C125.76 23.0298 125.592 23.0661 125.43 23.1385C125.268 23.2109 125.132 23.3249 125.024 23.4805C124.915 23.636 124.852 23.8395 124.835 24.0909H124.03C124.047 23.7287 124.141 23.4187 124.311 23.1609C124.484 22.9031 124.711 22.706 124.992 22.5696C125.275 22.4332 125.589 22.3651 125.935 22.3651C126.31 22.3651 126.636 22.4396 126.913 22.5888C127.192 22.7379 127.407 22.9425 127.558 23.2024C127.712 23.4624 127.788 23.7585 127.788 24.0909C127.788 24.3253 127.752 24.5373 127.68 24.7269C127.609 24.9165 127.507 25.0859 127.373 25.2351C127.241 25.3842 127.081 25.5163 126.893 25.6314C126.706 25.7486 126.556 25.8722 126.443 26.0021C126.33 26.13 126.248 26.2823 126.197 26.4592C126.146 26.636 126.118 26.8565 126.114 27.1207V27.1591H125.347ZM125.756 29.0511C125.598 29.0511 125.463 28.9947 125.35 28.8817C125.237 28.7688 125.18 28.6335 125.18 28.4759C125.18 28.3182 125.237 28.1829 125.35 28.07C125.463 27.957 125.598 27.9006 125.756 27.9006C125.913 27.9006 126.049 27.957 126.162 28.07C126.275 28.1829 126.331 28.3182 126.331 28.4759C126.331 28.5803 126.304 28.6761 126.251 28.7635C126.2 28.8509 126.131 28.9212 126.043 28.9744C125.958 29.0256 125.862 29.0511 125.756 29.0511Z" fill="black"/>
<g id="Logo">
<rect id="Rectangle 4" x="12" y="7" width="25" height="25" rx="5" fill="#FAFAFA"/>
<rect id="Rectangle 5" x="25" y="10" width="3" height="9" rx="1.5" fill="#4ADC78"/>
<rect id="Rectangle 12" x="29" y="16" width="3" height="3" rx="1.5" fill="#4ADC78"/>
<rect id="Rectangle 7" x="21" y="20" width="3" height="9" rx="1.5" fill="#F26D6D"/>
<rect id="Rectangle 10" x="17" y="20" width="3" height="3" rx="1.5" fill="#F26D6D"/>
<rect id="Rectangle 6" x="34" y="20" width="3" height="9" rx="1.5" transform="rotate(90 34 20)" fill="#F9C55D"/>
<rect id="Rectangle 9" x="28" y="24" width="3" height="3" rx="1.5" transform="rotate(90 28 24)" fill="#F9C55D"/>
<rect id="Rectangle 8" x="24" y="16" width="3" height="9" rx="1.5" transform="rotate(90 24 16)" fill="#70E3FD"/>
<rect id="Rectangle 11" x="24" y="12" width="3" height="3" rx="1.5" transform="rotate(90 24 12)" fill="#70E3FD"/>
</g>
</g>
</svg>
