<svg width="186" height="39" viewBox="0 0 186 39" fill="none" xmlns="http://www.w3.org/2000/svg">
<g id="Notification 3">
<rect id="Rectangle 3" width="186" height="39" rx="19.5" fill="#EAEAEA"/>
<path id="Grandma" d="M53.9091 11.5703C53.8643 11.4148 53.8015 11.2773 53.7205 11.158C53.6396 11.0366 53.5405 10.9343 53.4233 10.8512C53.3082 10.766 53.1761 10.701 53.027 10.6562C52.88 10.6115 52.717 10.5891 52.538 10.5891C52.2035 10.5891 51.9094 10.6722 51.6559 10.8384C51.4045 11.0046 51.2085 11.2464 51.0678 11.5639C50.9272 11.8793 50.8569 12.2649 50.8569 12.7209C50.8569 13.1768 50.9261 13.5646 51.0646 13.8842C51.2031 14.2038 51.3991 14.4478 51.6527 14.6161C51.9062 14.7823 52.2056 14.8654 52.5508 14.8654C52.864 14.8654 53.1314 14.81 53.353 14.6992C53.5767 14.5863 53.7472 14.4276 53.8643 14.223C53.9837 14.0185 54.0433 13.7766 54.0433 13.4975L54.3246 13.5391H52.6371V12.4972H55.3761V13.3217C55.3761 13.897 55.2546 14.3913 55.0117 14.8047C54.7688 15.2159 54.4343 15.5334 54.0082 15.7571C53.582 15.9787 53.0941 16.0895 52.5444 16.0895C51.9308 16.0895 51.3917 15.9542 50.9272 15.6836C50.4627 15.4109 50.1005 15.0241 49.8406 14.5234C49.5827 14.0206 49.4538 13.424 49.4538 12.7337C49.4538 12.2031 49.5305 11.7301 49.6839 11.3146C49.8395 10.897 50.0568 10.5433 50.3359 10.2536C50.6151 9.96378 50.94 9.74325 51.3107 9.59197C51.6815 9.4407 52.0831 9.36506 52.5156 9.36506C52.8864 9.36506 53.2315 9.41939 53.5511 9.52805C53.8707 9.63459 54.1541 9.78587 54.4013 9.98189C54.6506 10.1779 54.854 10.4112 55.0117 10.6818C55.1694 10.9503 55.2706 11.2464 55.3153 11.5703H53.9091ZM56.39 16V11.0909H57.71V11.9474H57.7611C57.8506 11.6428 58.0008 11.4126 58.2117 11.2571C58.4227 11.0994 58.6656 11.0206 58.9404 11.0206C59.0086 11.0206 59.0821 11.0249 59.161 11.0334C59.2398 11.0419 59.309 11.0536 59.3687 11.0685V12.2766C59.3048 12.2575 59.2164 12.2404 59.1034 12.2255C58.9905 12.2106 58.8872 12.2031 58.7934 12.2031C58.5931 12.2031 58.4142 12.2468 58.2565 12.3342C58.1009 12.4194 57.9774 12.5387 57.8857 12.6921C57.7963 12.8455 57.7515 13.0224 57.7515 13.2227V16H56.39ZM61.3319 16.0927C61.0186 16.0927 60.7395 16.0384 60.4945 15.9297C60.2495 15.8189 60.0556 15.6559 59.9128 15.4407C59.7722 15.2234 59.7019 14.9528 59.7019 14.6289C59.7019 14.3562 59.752 14.1271 59.8521 13.9418C59.9522 13.7564 60.0886 13.6072 60.2612 13.4943C60.4338 13.3814 60.6298 13.2962 60.8493 13.2386C61.0708 13.1811 61.3031 13.1406 61.546 13.1172C61.8315 13.0874 62.0616 13.0597 62.2363 13.0341C62.411 13.0064 62.5378 12.9659 62.6167 12.9126C62.6955 12.8594 62.7349 12.7805 62.7349 12.6761V12.657C62.7349 12.4545 62.671 12.2979 62.5431 12.1871C62.4174 12.0763 62.2385 12.021 62.0062 12.021C61.7612 12.021 61.5662 12.0753 61.4213 12.1839C61.2765 12.2905 61.1806 12.4247 61.1337 12.5866L59.8745 12.4844C59.9384 12.1861 60.0641 11.9283 60.2516 11.7109C60.4391 11.4915 60.6809 11.3232 60.9771 11.206C61.2754 11.0866 61.6206 11.027 62.0126 11.027C62.2853 11.027 62.5463 11.0589 62.7956 11.1229C63.0471 11.1868 63.2697 11.2859 63.4636 11.4201C63.6596 11.5543 63.8141 11.7269 63.927 11.9379C64.04 12.1467 64.0964 12.397 64.0964 12.6889V16H62.8052V15.3192H62.7669C62.688 15.4727 62.5826 15.608 62.4505 15.7251C62.3184 15.8402 62.1596 15.9308 61.9743 15.9968C61.7889 16.0607 61.5748 16.0927 61.3319 16.0927ZM61.7218 15.1531C61.9221 15.1531 62.0989 15.1136 62.2523 15.0348C62.4057 14.9538 62.5261 14.8452 62.6135 14.7088C62.7008 14.5724 62.7445 14.418 62.7445 14.2454V13.7244C62.7019 13.7521 62.6433 13.7777 62.5687 13.8011C62.4963 13.8224 62.4142 13.8427 62.3226 13.8619C62.231 13.8789 62.1394 13.8949 62.0478 13.9098C61.9561 13.9226 61.873 13.9343 61.7985 13.945C61.6387 13.9684 61.4991 14.0057 61.3798 14.0568C61.2605 14.108 61.1678 14.1772 61.1017 14.2646C61.0357 14.3498 61.0027 14.4563 61.0027 14.5842C61.0027 14.7695 61.0698 14.9112 61.204 15.0092C61.3404 15.1051 61.513 15.1531 61.7218 15.1531ZM66.5142 13.1619V16H65.1527V11.0909H66.4503V11.957H66.5078C66.6165 11.6715 66.7987 11.4457 67.0543 11.2795C67.31 11.1112 67.62 11.027 67.9844 11.027C68.3253 11.027 68.6225 11.1016 68.8761 11.2507C69.1296 11.3999 69.3267 11.6129 69.4673 11.8899C69.608 12.1648 69.6783 12.4929 69.6783 12.8743V16H68.3168V13.1172C68.3189 12.8168 68.2422 12.5824 68.0866 12.4141C67.9311 12.2436 67.717 12.1584 67.4442 12.1584C67.261 12.1584 67.0991 12.1978 66.9585 12.2766C66.82 12.3555 66.7113 12.4705 66.6325 12.6218C66.5558 12.771 66.5163 12.951 66.5142 13.1619ZM72.5603 16.0799C72.1874 16.0799 71.8497 15.984 71.5471 15.7923C71.2467 15.5984 71.0081 15.3139 70.8312 14.9389C70.6565 14.5618 70.5692 14.0994 70.5692 13.5518C70.5692 12.9893 70.6597 12.5217 70.8408 12.1488C71.0219 11.7738 71.2627 11.4936 71.5631 11.3082C71.8657 11.1207 72.197 11.027 72.5571 11.027C72.8319 11.027 73.061 11.0739 73.2442 11.1676C73.4296 11.2592 73.5787 11.3743 73.6917 11.5128C73.8067 11.6491 73.8941 11.7834 73.9537 11.9155H73.9953V9.45455H75.3536V16H74.0113V15.2138H73.9537C73.8898 15.3501 73.7993 15.4854 73.6821 15.6197C73.567 15.7518 73.4168 15.8615 73.2314 15.9489C73.0482 16.0362 72.8245 16.0799 72.5603 16.0799ZM72.9917 14.9964C73.2112 14.9964 73.3966 14.9368 73.5479 14.8175C73.7013 14.696 73.8184 14.5266 73.8994 14.3093C73.9825 14.092 74.0241 13.8374 74.0241 13.5455C74.0241 13.2536 73.9836 13 73.9026 12.7848C73.8216 12.5696 73.7045 12.4034 73.551 12.2862C73.3976 12.169 73.2112 12.1104 72.9917 12.1104C72.768 12.1104 72.5795 12.1712 72.426 12.2926C72.2726 12.4141 72.1565 12.5824 72.0777 12.7976C71.9988 13.0128 71.9594 13.2621 71.9594 13.5455C71.9594 13.831 71.9988 14.0835 72.0777 14.3029C72.1586 14.5202 72.2748 14.6907 72.426 14.8143C72.5795 14.9357 72.768 14.9964 72.9917 14.9964ZM76.473 16V11.0909H77.7706V11.957H77.8281C77.9304 11.6694 78.1009 11.4425 78.3395 11.2763C78.5781 11.1101 78.8636 11.027 79.196 11.027C79.5327 11.027 79.8192 11.1112 80.0558 11.2795C80.2923 11.4457 80.4499 11.6715 80.5288 11.957H80.5799C80.68 11.6758 80.8612 11.451 81.1232 11.2827C81.3874 11.1122 81.6996 11.027 82.0597 11.027C82.5178 11.027 82.8896 11.1729 83.1751 11.4648C83.4627 11.7546 83.6065 12.1658 83.6065 12.6985V16H82.2482V12.967C82.2482 12.6942 82.1758 12.4897 82.0309 12.3533C81.886 12.217 81.7049 12.1488 81.4876 12.1488C81.2404 12.1488 81.0476 12.2276 80.9091 12.3853C80.7706 12.5408 80.7013 12.7464 80.7013 13.0021V16H79.3814V12.9382C79.3814 12.6974 79.3121 12.5057 79.1737 12.3629C79.0373 12.2202 78.8572 12.1488 78.6335 12.1488C78.4822 12.1488 78.3459 12.1871 78.2244 12.2638C78.1051 12.3384 78.0103 12.4439 77.94 12.5803C77.8697 12.7145 77.8345 12.8722 77.8345 13.0533V16H76.473ZM86.0819 16.0927C85.7686 16.0927 85.4895 16.0384 85.2445 15.9297C84.9995 15.8189 84.8056 15.6559 84.6628 15.4407C84.5222 15.2234 84.4519 14.9528 84.4519 14.6289C84.4519 14.3562 84.502 14.1271 84.6021 13.9418C84.7022 13.7564 84.8386 13.6072 85.0112 13.4943C85.1838 13.3814 85.3798 13.2962 85.5993 13.2386C85.8208 13.1811 86.0531 13.1406 86.296 13.1172C86.5815 13.0874 86.8116 13.0597 86.9863 13.0341C87.161 13.0064 87.2878 12.9659 87.3667 12.9126C87.4455 12.8594 87.4849 12.7805 87.4849 12.6761V12.657C87.4849 12.4545 87.421 12.2979 87.2931 12.1871C87.1674 12.0763 86.9885 12.021 86.7562 12.021C86.5112 12.021 86.3162 12.0753 86.1713 12.1839C86.0265 12.2905 85.9306 12.4247 85.8837 12.5866L84.6245 12.4844C84.6884 12.1861 84.8141 11.9283 85.0016 11.7109C85.1891 11.4915 85.4309 11.3232 85.7271 11.206C86.0254 11.0866 86.3706 11.027 86.7626 11.027C87.0353 11.027 87.2963 11.0589 87.5456 11.1229C87.7971 11.1868 88.0197 11.2859 88.2136 11.4201C88.4096 11.5543 88.5641 11.7269 88.677 11.9379C88.79 12.1467 88.8464 12.397 88.8464 12.6889V16H87.5552V15.3192H87.5169C87.438 15.4727 87.3326 15.608 87.2005 15.7251C87.0684 15.8402 86.9096 15.9308 86.7243 15.9968C86.5389 16.0607 86.3248 16.0927 86.0819 16.0927ZM86.4718 15.1531C86.6721 15.1531 86.8489 15.1136 87.0023 15.0348C87.1557 14.9538 87.2761 14.8452 87.3635 14.7088C87.4508 14.5724 87.4945 14.418 87.4945 14.2454V13.7244C87.4519 13.7521 87.3933 13.7777 87.3187 13.8011C87.2463 13.8224 87.1642 13.8427 87.0726 13.8619C86.981 13.8789 86.8894 13.8949 86.7978 13.9098C86.7061 13.9226 86.623 13.9343 86.5485 13.945C86.3887 13.9684 86.2491 14.0057 86.1298 14.0568C86.0105 14.108 85.9178 14.1772 85.8517 14.2646C85.7857 14.3498 85.7527 14.4563 85.7527 14.5842C85.7527 14.7695 85.8198 14.9112 85.954 15.0092C86.0904 15.1051 86.263 15.1531 86.4718 15.1531Z" fill="black"/>
<path id="My printer isn&#226;&#128;&#153;t printing color" d="M49.7926 22.4545H50.7386L52.9631 27.8878H53.0398L55.2642 22.4545H56.2102V29H55.4688V24.027H55.4048L53.3594 29H52.6435L50.598 24.027H50.5341V29H49.7926V22.4545ZM58.183 30.8409C58.0551 30.8409 57.9411 30.8303 57.841 30.8089C57.7409 30.7898 57.6716 30.7706 57.6333 30.7514L57.825 30.0866C58.0083 30.1335 58.1702 30.1506 58.3108 30.1378C58.4514 30.125 58.5761 30.0621 58.6847 29.9492C58.7955 29.8384 58.8968 29.6584 58.9884 29.4091L59.129 29.0256L57.3137 24.0909H58.1318L59.4869 28.0028H59.5381L60.8932 24.0909H61.7114L59.6276 29.7159C59.5338 29.9695 59.4177 30.1793 59.2792 30.3455C59.1407 30.5138 58.9798 30.6385 58.7966 30.7195C58.6155 30.8004 58.411 30.8409 58.183 30.8409ZM65.2382 30.8409V24.0909H65.9669V24.8707H66.0564C66.1118 24.7855 66.1885 24.6768 66.2865 24.5447C66.3866 24.4105 66.5294 24.2912 66.7148 24.1868C66.9023 24.0803 67.1558 24.027 67.4754 24.027C67.8888 24.027 68.2531 24.1303 68.5684 24.337C68.8838 24.5437 69.1299 24.8366 69.3067 25.2159C69.4836 25.5952 69.572 26.0426 69.572 26.5582C69.572 27.0781 69.4836 27.5288 69.3067 27.9102C69.1299 28.2894 68.8849 28.5835 68.5716 28.7923C68.2584 28.9989 67.8973 29.1023 67.4882 29.1023C67.1729 29.1023 66.9204 29.0501 66.7307 28.9457C66.5411 28.8391 66.3952 28.7187 66.2929 28.5845C66.1906 28.4482 66.1118 28.3352 66.0564 28.2457H65.9925V30.8409H65.2382ZM65.9797 26.5455C65.9797 26.9162 66.034 27.2433 66.1427 27.5266C66.2513 27.8079 66.4101 28.0284 66.6189 28.1882C66.8277 28.3459 67.0834 28.4247 67.3859 28.4247C67.7013 28.4247 67.9644 28.3416 68.1753 28.1754C68.3884 28.0071 68.5482 27.7812 68.6547 27.4979C68.7634 27.2124 68.8177 26.8949 68.8177 26.5455C68.8177 26.2003 68.7645 25.8892 68.6579 25.6122C68.5535 25.3331 68.3948 25.1126 68.1817 24.9506C67.9708 24.7866 67.7055 24.7045 67.3859 24.7045C67.0791 24.7045 66.8213 24.7823 66.6125 24.9379C66.4037 25.0913 66.246 25.3065 66.1395 25.5835C66.0329 25.8583 65.9797 26.179 65.9797 26.5455ZM70.7226 29V24.0909H71.4513V24.8324H71.5024C71.5919 24.5895 71.7538 24.3924 71.9882 24.2411C72.2226 24.0898 72.4868 24.0142 72.7808 24.0142C72.8362 24.0142 72.9055 24.0153 72.9885 24.0174C73.0716 24.0195 73.1345 24.0227 73.1771 24.027V24.794C73.1515 24.7876 73.093 24.7781 73.0013 24.7653C72.9118 24.7504 72.817 24.7429 72.7169 24.7429C72.4782 24.7429 72.2652 24.793 72.0777 24.8931C71.8923 24.9911 71.7453 25.1275 71.6366 25.3022C71.5301 25.4748 71.4768 25.6719 71.4768 25.8935V29H70.7226ZM74.0712 29V24.0909H74.8255V29H74.0712ZM74.4547 23.2727C74.3077 23.2727 74.1809 23.2227 74.0744 23.1225C73.97 23.0224 73.9178 22.902 73.9178 22.7614C73.9178 22.6207 73.97 22.5004 74.0744 22.4002C74.1809 22.3001 74.3077 22.25 74.4547 22.25C74.6017 22.25 74.7275 22.3001 74.8319 22.4002C74.9384 22.5004 74.9917 22.6207 74.9917 22.7614C74.9917 22.902 74.9384 23.0224 74.8319 23.1225C74.7275 23.2227 74.6017 23.2727 74.4547 23.2727ZM76.9612 26.0469V29H76.2069V24.0909H76.9356V24.858H76.9996C77.1146 24.6087 77.2893 24.4084 77.5237 24.2571C77.7581 24.1037 78.0606 24.027 78.4314 24.027C78.7638 24.027 79.0546 24.0952 79.3039 24.2315C79.5532 24.3658 79.7471 24.5703 79.8856 24.8452C80.0241 25.1179 80.0933 25.4631 80.0933 25.8807V29H79.339V25.9318C79.339 25.5462 79.2389 25.2457 79.0386 25.0305C78.8383 24.8132 78.5635 24.7045 78.214 24.7045C77.9733 24.7045 77.7581 24.7567 77.5684 24.8612C77.3809 24.9656 77.2329 25.1179 77.1242 25.3182C77.0155 25.5185 76.9612 25.7614 76.9612 26.0469ZM83.6065 24.0909V24.7301H81.0625V24.0909H83.6065ZM81.804 22.9148H82.5582V27.5938C82.5582 27.8068 82.5891 27.9666 82.6509 28.0732C82.7148 28.1776 82.7958 28.2479 82.8938 28.2841C82.994 28.3182 83.0994 28.3352 83.2102 28.3352C83.2933 28.3352 83.3615 28.331 83.4148 28.3224C83.468 28.3118 83.5107 28.3033 83.5426 28.2969L83.696 28.9744C83.6449 28.9936 83.5735 29.0128 83.4819 29.032C83.3903 29.0533 83.2741 29.0639 83.1335 29.0639C82.9205 29.0639 82.7116 29.0181 82.5071 28.9265C82.3047 28.8349 82.1364 28.6953 82.0021 28.5078C81.87 28.3203 81.804 28.0838 81.804 27.7983V22.9148ZM86.7466 29.1023C86.2736 29.1023 85.8656 28.9979 85.5225 28.7891C85.1816 28.5781 84.9185 28.2841 84.7331 27.907C84.5499 27.5277 84.4583 27.0866 84.4583 26.5838C84.4583 26.081 84.5499 25.6378 84.7331 25.2543C84.9185 24.8686 85.1763 24.5682 85.5066 24.353C85.839 24.1357 86.2267 24.027 86.6699 24.027C86.9256 24.027 87.1781 24.0696 87.4274 24.1548C87.6767 24.2401 87.9036 24.3786 88.1081 24.5703C88.3127 24.7599 88.4757 25.0114 88.5971 25.3246C88.7186 25.6378 88.7793 26.0234 88.7793 26.4815V26.8011H84.9952V26.1491H88.0123C88.0123 25.8722 87.9569 25.625 87.8461 25.4077C87.7374 25.1903 87.5819 25.0188 87.3794 24.8931C87.1792 24.7674 86.9426 24.7045 86.6699 24.7045C86.3695 24.7045 86.1096 24.7791 85.8901 24.9283C85.6728 25.0753 85.5055 25.267 85.3883 25.5036C85.2711 25.7401 85.2125 25.9936 85.2125 26.2642V26.6989C85.2125 27.0696 85.2765 27.3839 85.4043 27.6417C85.5343 27.8974 85.7143 28.0923 85.9444 28.2266C86.1745 28.3587 86.4419 28.4247 86.7466 28.4247C86.9448 28.4247 87.1238 28.397 87.2836 28.3416C87.4455 28.2841 87.585 28.1989 87.7022 28.0859C87.8194 27.9709 87.91 27.8281 87.9739 27.6577L88.7026 27.8622C88.6259 28.1094 88.497 28.3267 88.3159 28.5142C88.1348 28.6996 87.911 28.8445 87.6447 28.9489C87.3784 29.0511 87.079 29.1023 86.7466 29.1023ZM89.9267 29V24.0909H90.6554V24.8324H90.7065C90.796 24.5895 90.9579 24.3924 91.1923 24.2411C91.4267 24.0898 91.6909 24.0142 91.9849 24.0142C92.0403 24.0142 92.1096 24.0153 92.1926 24.0174C92.2757 24.0195 92.3386 24.0227 92.3812 24.027V24.794C92.3556 24.7876 92.2971 24.7781 92.2054 24.7653C92.1159 24.7504 92.0211 24.7429 91.921 24.7429C91.6824 24.7429 91.4693 24.793 91.2818 24.8931C91.0964 24.9911 90.9494 25.1275 90.8407 25.3022C90.7342 25.4748 90.6809 25.6719 90.6809 25.8935V29H89.9267ZM95.8066 29V24.0909H96.5608V29H95.8066ZM96.1901 23.2727C96.0431 23.2727 95.9163 23.2227 95.8097 23.1225C95.7053 23.0224 95.6531 22.902 95.6531 22.7614C95.6531 22.6207 95.7053 22.5004 95.8097 22.4002C95.9163 22.3001 96.0431 22.25 96.1901 22.25C96.3371 22.25 96.4628 22.3001 96.5672 22.4002C96.6737 22.5004 96.727 22.6207 96.727 22.7614C96.727 22.902 96.6737 23.0224 96.5672 23.1225C96.4628 23.2227 96.3371 23.2727 96.1901 23.2727ZM101.42 25.1903L100.742 25.3821C100.699 25.2692 100.637 25.1594 100.553 25.0529C100.472 24.9442 100.362 24.8548 100.221 24.7844C100.08 24.7141 99.9004 24.679 99.6809 24.679C99.3805 24.679 99.1301 24.7482 98.9299 24.8867C98.7317 25.0231 98.6326 25.1967 98.6326 25.4077C98.6326 25.5952 98.7008 25.7433 98.8372 25.8519C98.9735 25.9606 99.1866 26.0511 99.4764 26.1236L100.205 26.3026C100.644 26.4091 100.971 26.5721 101.186 26.7915C101.401 27.0089 101.509 27.2891 101.509 27.6321C101.509 27.9134 101.428 28.1648 101.266 28.3864C101.106 28.608 100.883 28.7827 100.595 28.9105C100.307 29.0384 99.9728 29.1023 99.5914 29.1023C99.0907 29.1023 98.6763 28.9936 98.3482 28.7763C98.0201 28.5589 97.8123 28.2415 97.725 27.8239L98.4409 27.6449C98.5091 27.9091 98.638 28.1072 98.8276 28.2393C99.0194 28.3714 99.2697 28.4375 99.5787 28.4375C99.9302 28.4375 100.209 28.3629 100.416 28.2138C100.625 28.0625 100.729 27.8814 100.729 27.6705C100.729 27.5 100.67 27.3572 100.55 27.2422C100.431 27.125 100.248 27.0376 100.001 26.9801L99.1824 26.7884C98.7328 26.6818 98.4025 26.5167 98.1916 26.293C97.9828 26.0671 97.8784 25.7848 97.8784 25.446C97.8784 25.169 97.9561 24.924 98.1117 24.7109C98.2694 24.4979 98.4835 24.3306 98.7541 24.2092C99.0268 24.0877 99.3358 24.027 99.6809 24.027C100.167 24.027 100.548 24.1335 100.825 24.3466C101.104 24.5597 101.302 24.8409 101.42 25.1903ZM103.399 26.0469V29H102.644V24.0909H103.373V24.858H103.437C103.552 24.6087 103.727 24.4084 103.961 24.2571C104.196 24.1037 104.498 24.027 104.869 24.027C105.201 24.027 105.492 24.0952 105.741 24.2315C105.991 24.3658 106.185 24.5703 106.323 24.8452C106.462 25.1179 106.531 25.4631 106.531 25.8807V29H105.777V25.9318C105.777 25.5462 105.676 25.2457 105.476 25.0305C105.276 24.8132 105.001 24.7045 104.652 24.7045C104.411 24.7045 104.196 24.7567 104.006 24.8612C103.818 24.9656 103.67 25.1179 103.562 25.3182C103.453 25.5185 103.399 25.7614 103.399 26.0469ZM108.574 22.4545V23.0298C108.574 23.2045 108.542 23.391 108.478 23.5891C108.416 23.7852 108.325 23.9759 108.203 24.1612C108.084 24.3445 107.939 24.5043 107.768 24.6406L107.359 24.3082C107.494 24.1165 107.61 23.9173 107.708 23.7106C107.808 23.5018 107.858 23.2791 107.858 23.0426V22.4545H108.574ZM111.837 24.0909V24.7301H109.293V24.0909H111.837ZM110.034 22.9148H110.789V27.5938C110.789 27.8068 110.82 27.9666 110.881 28.0732C110.945 28.1776 111.026 28.2479 111.124 28.2841C111.224 28.3182 111.33 28.3352 111.441 28.3352C111.524 28.3352 111.592 28.331 111.645 28.3224C111.699 28.3118 111.741 28.3033 111.773 28.2969L111.926 28.9744C111.875 28.9936 111.804 29.0128 111.712 29.032C111.621 29.0533 111.505 29.0639 111.364 29.0639C111.151 29.0639 110.942 29.0181 110.738 28.9265C110.535 28.8349 110.367 28.6953 110.233 28.5078C110.1 28.3203 110.034 28.0838 110.034 27.7983V22.9148ZM115.503 30.8409V24.0909H116.232V24.8707H116.321C116.376 24.7855 116.453 24.6768 116.551 24.5447C116.651 24.4105 116.794 24.2912 116.979 24.1868C117.167 24.0803 117.42 24.027 117.74 24.027C118.153 24.027 118.518 24.1303 118.833 24.337C119.148 24.5437 119.395 24.8366 119.571 25.2159C119.748 25.5952 119.837 26.0426 119.837 26.5582C119.837 27.0781 119.748 27.5288 119.571 27.9102C119.395 28.2894 119.15 28.5835 118.836 28.7923C118.523 28.9989 118.162 29.1023 117.753 29.1023C117.438 29.1023 117.185 29.0501 116.995 28.9457C116.806 28.8391 116.66 28.7187 116.558 28.5845C116.455 28.4482 116.376 28.3352 116.321 28.2457H116.257V30.8409H115.503ZM116.244 26.5455C116.244 26.9162 116.299 27.2433 116.407 27.5266C116.516 27.8079 116.675 28.0284 116.884 28.1882C117.092 28.3459 117.348 28.4247 117.651 28.4247C117.966 28.4247 118.229 28.3416 118.44 28.1754C118.653 28.0071 118.813 27.7812 118.919 27.4979C119.028 27.2124 119.082 26.8949 119.082 26.5455C119.082 26.2003 119.029 25.8892 118.923 25.6122C118.818 25.3331 118.659 25.1126 118.446 24.9506C118.235 24.7866 117.97 24.7045 117.651 24.7045C117.344 24.7045 117.086 24.7823 116.877 24.9379C116.668 25.0913 116.511 25.3065 116.404 25.5835C116.298 25.8583 116.244 26.179 116.244 26.5455ZM120.987 29V24.0909H121.716V24.8324H121.767C121.857 24.5895 122.018 24.3924 122.253 24.2411C122.487 24.0898 122.751 24.0142 123.045 24.0142C123.101 24.0142 123.17 24.0153 123.253 24.0174C123.336 24.0195 123.399 24.0227 123.442 24.027V24.794C123.416 24.7876 123.358 24.7781 123.266 24.7653C123.176 24.7504 123.082 24.7429 122.982 24.7429C122.743 24.7429 122.53 24.793 122.342 24.8931C122.157 24.9911 122.01 25.1275 121.901 25.3022C121.795 25.4748 121.741 25.6719 121.741 25.8935V29H120.987ZM124.336 29V24.0909H125.09V29H124.336ZM124.719 23.2727C124.572 23.2727 124.446 23.2227 124.339 23.1225C124.235 23.0224 124.182 22.902 124.182 22.7614C124.182 22.6207 124.235 22.5004 124.339 22.4002C124.446 22.3001 124.572 22.25 124.719 22.25C124.866 22.25 124.992 22.3001 125.097 22.4002C125.203 22.5004 125.256 22.6207 125.256 22.7614C125.256 22.902 125.203 23.0224 125.097 23.1225C124.992 23.2227 124.866 23.2727 124.719 23.2727ZM127.226 26.0469V29H126.472V24.0909H127.2V24.858H127.264C127.379 24.6087 127.554 24.4084 127.788 24.2571C128.023 24.1037 128.325 24.027 128.696 24.027C129.028 24.027 129.319 24.0952 129.569 24.2315C129.818 24.3658 130.012 24.5703 130.15 24.8452C130.289 25.1179 130.358 25.4631 130.358 25.8807V29H129.604V25.9318C129.604 25.5462 129.504 25.2457 129.303 25.0305C129.103 24.8132 128.828 24.7045 128.479 24.7045C128.238 24.7045 128.023 24.7567 127.833 24.8612C127.646 24.9656 127.498 25.1179 127.389 25.3182C127.28 25.5185 127.226 25.7614 127.226 26.0469ZM133.871 24.0909V24.7301H131.327V24.0909H133.871ZM132.069 22.9148H132.823V27.5938C132.823 27.8068 132.854 27.9666 132.916 28.0732C132.979 28.1776 133.06 28.2479 133.158 28.2841C133.259 28.3182 133.364 28.3352 133.475 28.3352C133.558 28.3352 133.626 28.331 133.679 28.3224C133.733 28.3118 133.775 28.3033 133.807 28.2969L133.961 28.9744C133.91 28.9936 133.838 29.0128 133.747 29.032C133.655 29.0533 133.539 29.0639 133.398 29.0639C133.185 29.0639 132.976 29.0181 132.772 28.9265C132.569 28.8349 132.401 28.6953 132.267 28.5078C132.135 28.3203 132.069 28.0838 132.069 27.7983V22.9148ZM135.006 29V24.0909H135.76V29H135.006ZM135.389 23.2727C135.242 23.2727 135.116 23.2227 135.009 23.1225C134.905 23.0224 134.852 22.902 134.852 22.7614C134.852 22.6207 134.905 22.5004 135.009 22.4002C135.116 22.3001 135.242 22.25 135.389 22.25C135.536 22.25 135.662 22.3001 135.766 22.4002C135.873 22.5004 135.926 22.6207 135.926 22.7614C135.926 22.902 135.873 23.0224 135.766 23.1225C135.662 23.2227 135.536 23.2727 135.389 23.2727ZM137.896 26.0469V29H137.142V24.0909H137.87V24.858H137.934C138.049 24.6087 138.224 24.4084 138.458 24.2571C138.693 24.1037 138.995 24.027 139.366 24.027C139.698 24.027 139.989 24.0952 140.238 24.2315C140.488 24.3658 140.682 24.5703 140.82 24.8452C140.959 25.1179 141.028 25.4631 141.028 25.8807V29H140.274V25.9318C140.274 25.5462 140.173 25.2457 139.973 25.0305C139.773 24.8132 139.498 24.7045 139.149 24.7045C138.908 24.7045 138.693 24.7567 138.503 24.8612C138.316 24.9656 138.167 25.1179 138.059 25.3182C137.95 25.5185 137.896 25.7614 137.896 26.0469ZM144.388 30.9432C144.023 30.9432 143.71 30.8963 143.448 30.8026C143.186 30.7109 142.968 30.5895 142.793 30.4382C142.62 30.2891 142.483 30.1293 142.381 29.9588L142.981 29.5369C143.05 29.6264 143.136 29.7287 143.24 29.8438C143.345 29.9609 143.487 30.0621 143.669 30.1474C143.852 30.2347 144.092 30.2784 144.388 30.2784C144.784 30.2784 145.111 30.1825 145.369 29.9908C145.627 29.799 145.756 29.4986 145.756 29.0895V28.0923H145.692C145.636 28.1818 145.557 28.2926 145.455 28.4247C145.355 28.5547 145.21 28.6708 145.021 28.7731C144.833 28.8732 144.579 28.9233 144.26 28.9233C143.864 28.9233 143.508 28.8295 143.192 28.642C142.879 28.4545 142.631 28.1818 142.448 27.8239C142.267 27.4659 142.176 27.0312 142.176 26.5199C142.176 26.017 142.264 25.5792 142.441 25.2063C142.618 24.8313 142.864 24.5415 143.18 24.337C143.495 24.1303 143.859 24.027 144.273 24.027C144.592 24.027 144.846 24.0803 145.033 24.1868C145.223 24.2912 145.368 24.4105 145.468 24.5447C145.57 24.6768 145.649 24.7855 145.704 24.8707H145.781V24.0909H146.51V29.1406C146.51 29.5625 146.414 29.9055 146.222 30.1697C146.033 30.4361 145.777 30.631 145.455 30.7546C145.136 30.8803 144.78 30.9432 144.388 30.9432ZM144.362 28.2457C144.665 28.2457 144.92 28.1765 145.129 28.038C145.338 27.8995 145.497 27.7003 145.605 27.4403C145.714 27.1804 145.768 26.8693 145.768 26.5071C145.768 26.1534 145.715 25.8413 145.609 25.5707C145.502 25.3001 145.344 25.0881 145.136 24.9347C144.927 24.7812 144.669 24.7045 144.362 24.7045C144.043 24.7045 143.776 24.7855 143.563 24.9474C143.352 25.1094 143.193 25.3267 143.087 25.5994C142.983 25.8722 142.93 26.1747 142.93 26.5071C142.93 26.848 142.984 27.1495 143.09 27.4116C143.199 27.6715 143.359 27.8761 143.57 28.0252C143.783 28.1722 144.047 28.2457 144.362 28.2457ZM152.416 29.1023C151.956 29.1023 151.56 28.9936 151.227 28.7763C150.895 28.5589 150.639 28.2596 150.46 27.8782C150.281 27.4968 150.192 27.0611 150.192 26.571C150.192 26.0724 150.283 25.6325 150.467 25.2511C150.652 24.8675 150.91 24.5682 151.24 24.353C151.572 24.1357 151.96 24.027 152.403 24.027C152.748 24.027 153.06 24.0909 153.337 24.2188C153.614 24.3466 153.84 24.5256 154.017 24.7557C154.194 24.9858 154.304 25.2543 154.347 25.5611H153.592C153.535 25.3374 153.407 25.1392 153.209 24.9666C153.013 24.7919 152.748 24.7045 152.416 24.7045C152.122 24.7045 151.864 24.7812 151.643 24.9347C151.423 25.0859 151.252 25.3001 151.128 25.5771C151.007 25.8519 150.946 26.1747 150.946 26.5455C150.946 26.9247 151.006 27.255 151.125 27.5362C151.246 27.8175 151.417 28.0359 151.636 28.1914C151.858 28.3469 152.118 28.4247 152.416 28.4247C152.612 28.4247 152.79 28.3906 152.95 28.3224C153.11 28.2543 153.245 28.1562 153.356 28.0284C153.467 27.9006 153.545 27.7472 153.592 27.5682H154.347C154.304 27.858 154.198 28.119 154.03 28.3512C153.864 28.5813 153.643 28.7646 153.369 28.9009C153.096 29.0352 152.778 29.1023 152.416 29.1023ZM157.443 29.1023C157 29.1023 156.611 28.9968 156.277 28.7859C155.945 28.5749 155.685 28.2798 155.497 27.9006C155.312 27.5213 155.219 27.0781 155.219 26.571C155.219 26.0597 155.312 25.6133 155.497 25.2319C155.685 24.8505 155.945 24.5543 156.277 24.3434C156.611 24.1325 157 24.027 157.443 24.027C157.887 24.027 158.274 24.1325 158.607 24.3434C158.941 24.5543 159.201 24.8505 159.387 25.2319C159.574 25.6133 159.668 26.0597 159.668 26.571C159.668 27.0781 159.574 27.5213 159.387 27.9006C159.201 28.2798 158.941 28.5749 158.607 28.7859C158.274 28.9968 157.887 29.1023 157.443 29.1023ZM157.443 28.4247C157.78 28.4247 158.057 28.3384 158.274 28.1658C158.492 27.9933 158.653 27.7663 158.757 27.4851C158.861 27.2038 158.914 26.8991 158.914 26.571C158.914 26.2429 158.861 25.9371 158.757 25.6538C158.653 25.3704 158.492 25.1413 158.274 24.9666C158.057 24.7919 157.78 24.7045 157.443 24.7045C157.107 24.7045 156.83 24.7919 156.612 24.9666C156.395 25.1413 156.234 25.3704 156.13 25.6538C156.025 25.9371 155.973 26.2429 155.973 26.571C155.973 26.8991 156.025 27.2038 156.13 27.4851C156.234 27.7663 156.395 27.9933 156.612 28.1658C156.83 28.3384 157.107 28.4247 157.443 28.4247ZM161.574 22.4545V29H160.819V22.4545H161.574ZM164.949 29.1023C164.506 29.1023 164.117 28.9968 163.783 28.7859C163.45 28.5749 163.19 28.2798 163.003 27.9006C162.818 27.5213 162.725 27.0781 162.725 26.571C162.725 26.0597 162.818 25.6133 163.003 25.2319C163.19 24.8505 163.45 24.5543 163.783 24.3434C164.117 24.1325 164.506 24.027 164.949 24.027C165.392 24.027 165.78 24.1325 166.113 24.3434C166.447 24.5543 166.707 24.8505 166.892 25.2319C167.08 25.6133 167.174 26.0597 167.174 26.571C167.174 27.0781 167.08 27.5213 166.892 27.9006C166.707 28.2798 166.447 28.5749 166.113 28.7859C165.78 28.9968 165.392 29.1023 164.949 29.1023ZM164.949 28.4247C165.286 28.4247 165.563 28.3384 165.78 28.1658C165.998 27.9933 166.158 27.7663 166.263 27.4851C166.367 27.2038 166.419 26.8991 166.419 26.571C166.419 26.2429 166.367 25.9371 166.263 25.6538C166.158 25.3704 165.998 25.1413 165.78 24.9666C165.563 24.7919 165.286 24.7045 164.949 24.7045C164.613 24.7045 164.336 24.7919 164.118 24.9666C163.901 25.1413 163.74 25.3704 163.636 25.6538C163.531 25.9371 163.479 26.2429 163.479 26.571C163.479 26.8991 163.531 27.2038 163.636 27.4851C163.74 27.7663 163.901 27.9933 164.118 28.1658C164.336 28.3384 164.613 28.4247 164.949 28.4247ZM168.325 29V24.0909H169.054V24.8324H169.105C169.194 24.5895 169.356 24.3924 169.591 24.2411C169.825 24.0898 170.089 24.0142 170.383 24.0142C170.439 24.0142 170.508 24.0153 170.591 24.0174C170.674 24.0195 170.737 24.0227 170.78 24.027V24.794C170.754 24.7876 170.695 24.7781 170.604 24.7653C170.514 24.7504 170.42 24.7429 170.319 24.7429C170.081 24.7429 169.868 24.793 169.68 24.8931C169.495 24.9911 169.348 25.1275 169.239 25.3022C169.133 25.4748 169.079 25.6719 169.079 25.8935V29H168.325Z" fill="black"/>
<g id="Logo">
<rect id="Rectangle 4" x="12" y="7" width="25" height="25" rx="5" fill="#68D06E"/>
<ellipse id="Ellipse 4" cx="24.5" cy="19" rx="8.5" ry="7" fill="#ECECEC"/>
<path id="Vector 1" d="M18 26.5L22 24.5L18.5 22.5L18 26.5Z" fill="#ECECEC"/>
</g>
</g>
</svg>
