<svg width="186" height="39" viewBox="0 0 186 39" fill="none" xmlns="http://www.w3.org/2000/svg">
<g id="Notification 2">
<rect id="Rectangle 3" width="186" height="39" rx="19.5" fill="#EAEAEA"/>
<path id="Monika Musterfrau" d="M49.5689 9.45455H51.2756L53.0781 13.8523H53.1548L54.9574 9.45455H56.6641V16H55.3217V11.7397H55.2674L53.5735 15.968H52.6594L50.9656 11.7237H50.9112V16H49.5689V9.45455ZM59.9967 16.0959C59.5003 16.0959 59.0709 15.9904 58.7087 15.7795C58.3486 15.5664 58.0706 15.2702 57.8746 14.891C57.6785 14.5096 57.5805 14.0675 57.5805 13.5646C57.5805 13.0575 57.6785 12.6143 57.8746 12.2351C58.0706 11.8537 58.3486 11.5575 58.7087 11.3466C59.0709 11.1335 59.5003 11.027 59.9967 11.027C60.4932 11.027 60.9214 11.1335 61.2815 11.3466C61.6437 11.5575 61.9229 11.8537 62.1189 12.2351C62.3149 12.6143 62.4129 13.0575 62.4129 13.5646C62.4129 14.0675 62.3149 14.5096 62.1189 14.891C61.9229 15.2702 61.6437 15.5664 61.2815 15.7795C60.9214 15.9904 60.4932 16.0959 59.9967 16.0959ZM60.0031 15.0412C60.229 15.0412 60.4175 14.9773 60.5688 14.8494C60.7201 14.7195 60.8341 14.5426 60.9108 14.3189C60.9896 14.0952 61.029 13.8406 61.029 13.555C61.029 13.2695 60.9896 13.0149 60.9108 12.7912C60.8341 12.5675 60.7201 12.3906 60.5688 12.2607C60.4175 12.1307 60.229 12.0657 60.0031 12.0657C59.7751 12.0657 59.5834 12.1307 59.4278 12.2607C59.2744 12.3906 59.1583 12.5675 59.0795 12.7912C59.0028 13.0149 58.9644 13.2695 58.9644 13.555C58.9644 13.8406 59.0028 14.0952 59.0795 14.3189C59.1583 14.5426 59.2744 14.7195 59.4278 14.8494C59.5834 14.9773 59.7751 15.0412 60.0031 15.0412ZM64.6597 13.1619V16H63.2982V11.0909H64.5958V11.957H64.6533C64.762 11.6715 64.9442 11.4457 65.1998 11.2795C65.4555 11.1112 65.7655 11.027 66.1299 11.027C66.4708 11.027 66.768 11.1016 67.0216 11.2507C67.2751 11.3999 67.4722 11.6129 67.6128 11.8899C67.7535 12.1648 67.8238 12.4929 67.8238 12.8743V16H66.4623V13.1172C66.4644 12.8168 66.3877 12.5824 66.2322 12.4141C66.0766 12.2436 65.8625 12.1584 65.5898 12.1584C65.4065 12.1584 65.2446 12.1978 65.104 12.2766C64.9655 12.3555 64.8568 12.4705 64.778 12.6218C64.7013 12.771 64.6618 12.951 64.6597 13.1619ZM68.8968 16V11.0909H70.2583V16H68.8968ZM69.5808 10.4581C69.3784 10.4581 69.2047 10.391 69.0598 10.2567C68.9171 10.1204 68.8457 9.95739 68.8457 9.76776C68.8457 9.58026 68.9171 9.41939 69.0598 9.28516C69.2047 9.14879 69.3784 9.08061 69.5808 9.08061C69.7832 9.08061 69.9558 9.14879 70.0985 9.28516C70.2434 9.41939 70.3159 9.58026 70.3159 9.76776C70.3159 9.95739 70.2434 10.1204 70.0985 10.2567C69.9558 10.391 69.7832 10.4581 69.5808 10.4581ZM72.5827 14.5874L72.5858 12.9542H72.784L74.3564 11.0909H75.9193L73.8067 13.5582H73.4839L72.5827 14.5874ZM71.349 16V9.45455H72.7105V16H71.349ZM74.4172 16L72.9726 13.8619L73.8802 12.8999L76.012 16H74.4172ZM77.9871 16.0927C77.6739 16.0927 77.3948 16.0384 77.1498 15.9297C76.9047 15.8189 76.7108 15.6559 76.5681 15.4407C76.4275 15.2234 76.3572 14.9528 76.3572 14.6289C76.3572 14.3562 76.4072 14.1271 76.5074 13.9418C76.6075 13.7564 76.7439 13.6072 76.9165 13.4943C77.089 13.3814 77.2851 13.2962 77.5045 13.2386C77.7261 13.1811 77.9584 13.1406 78.2013 13.1172C78.4868 13.0874 78.7169 13.0597 78.8916 13.0341C79.0663 13.0064 79.1931 12.9659 79.2719 12.9126C79.3508 12.8594 79.3902 12.7805 79.3902 12.6761V12.657C79.3902 12.4545 79.3263 12.2979 79.1984 12.1871C79.0727 12.0763 78.8937 12.021 78.6615 12.021C78.4165 12.021 78.2215 12.0753 78.0766 12.1839C77.9317 12.2905 77.8358 12.4247 77.789 12.5866L76.5297 12.4844C76.5937 12.1861 76.7194 11.9283 76.9069 11.7109C77.0944 11.4915 77.3362 11.3232 77.6324 11.206C77.9307 11.0866 78.2758 11.027 78.6679 11.027C78.9406 11.027 79.2016 11.0589 79.4509 11.1229C79.7023 11.1868 79.925 11.2859 80.1189 11.4201C80.3149 11.5543 80.4694 11.7269 80.5823 11.9379C80.6952 12.1467 80.7517 12.397 80.7517 12.6889V16H79.4605V15.3192H79.4221C79.3433 15.4727 79.2378 15.608 79.1057 15.7251C78.9736 15.8402 78.8149 15.9308 78.6295 15.9968C78.4442 16.0607 78.23 16.0927 77.9871 16.0927ZM78.377 15.1531C78.5773 15.1531 78.7542 15.1136 78.9076 15.0348C79.061 14.9538 79.1814 14.8452 79.2687 14.7088C79.3561 14.5724 79.3998 14.418 79.3998 14.2454V13.7244C79.3572 13.7521 79.2986 13.7777 79.224 13.8011C79.1515 13.8224 79.0695 13.8427 78.9779 13.8619C78.8863 13.8789 78.7947 13.8949 78.703 13.9098C78.6114 13.9226 78.5283 13.9343 78.4537 13.945C78.2939 13.9684 78.1544 14.0057 78.0351 14.0568C77.9157 14.108 77.8231 14.1772 77.757 14.2646C77.691 14.3498 77.6579 14.4563 77.6579 14.5842C77.6579 14.7695 77.7251 14.9112 77.8593 15.0092C77.9956 15.1051 78.1682 15.1531 78.377 15.1531ZM83.9165 9.45455H85.6232L87.4258 13.8523H87.5025L89.305 9.45455H91.0117V16H89.6694V11.7397H89.6151L87.9212 15.968H87.0071L85.3132 11.7237H85.2589V16H83.9165V9.45455ZM95.2744 13.9098V11.0909H96.6359V16H95.3287V15.1083H95.2776C95.1668 15.396 94.9825 15.6271 94.7247 15.8018C94.469 15.9766 94.1569 16.0639 93.7883 16.0639C93.4601 16.0639 93.1714 15.9893 92.9221 15.8402C92.6729 15.6911 92.4779 15.479 92.3373 15.2042C92.1988 14.9293 92.1285 14.6001 92.1263 14.2166V11.0909H93.4878V13.9737C93.49 14.2635 93.5677 14.4925 93.7211 14.6609C93.8746 14.8292 94.0802 14.9134 94.338 14.9134C94.502 14.9134 94.6555 14.8761 94.7982 14.8015C94.941 14.7248 95.056 14.6119 95.1434 14.4627C95.2329 14.3136 95.2765 14.1293 95.2744 13.9098ZM101.809 12.4908L100.563 12.5675C100.542 12.4609 100.496 12.3651 100.426 12.2798C100.355 12.1925 100.263 12.1232 100.148 12.0721C100.035 12.0188 99.8993 11.9922 99.7417 11.9922C99.5307 11.9922 99.3528 12.0369 99.2079 12.1264C99.063 12.2138 98.9906 12.331 98.9906 12.478C98.9906 12.5952 99.0375 12.6942 99.1312 12.7752C99.225 12.8562 99.3858 12.9212 99.6138 12.9702L100.502 13.1491C100.98 13.2472 101.335 13.4048 101.57 13.6222C101.804 13.8395 101.921 14.125 101.921 14.4787C101.921 14.8004 101.827 15.0827 101.637 15.3256C101.449 15.5685 101.192 15.7582 100.863 15.8945C100.537 16.0288 100.161 16.0959 99.7353 16.0959C99.0854 16.0959 98.5676 15.9606 98.182 15.69C97.7985 15.4173 97.5737 15.0465 97.5076 14.5778L98.8468 14.5075C98.8873 14.7056 98.9853 14.8569 99.1408 14.9613C99.2963 15.0636 99.4956 15.1147 99.7385 15.1147C99.9771 15.1147 100.169 15.0689 100.314 14.9773C100.461 14.8835 100.535 14.7631 100.537 14.6161C100.535 14.4925 100.483 14.3913 100.381 14.3125C100.279 14.2315 100.121 14.1697 99.9078 14.1271L99.0577 13.9577C98.5783 13.8619 98.2214 13.6957 97.987 13.4592C97.7548 13.2227 97.6387 12.9212 97.6387 12.5547C97.6387 12.2393 97.7239 11.9677 97.8944 11.7397C98.0669 11.5117 98.3088 11.3359 98.6199 11.2124C98.9331 11.0888 99.2995 11.027 99.7193 11.027C100.339 11.027 100.827 11.158 101.183 11.4201C101.541 11.6822 101.75 12.0391 101.809 12.4908ZM105.39 11.0909V12.1136H102.434V11.0909H105.39ZM103.105 9.91477H104.466V14.4915C104.466 14.6172 104.485 14.7152 104.524 14.7855C104.562 14.8537 104.615 14.9016 104.684 14.9293C104.754 14.957 104.835 14.9709 104.926 14.9709C104.99 14.9709 105.054 14.9656 105.118 14.9549C105.182 14.9421 105.231 14.9325 105.265 14.9261L105.479 15.9393C105.411 15.9606 105.315 15.9851 105.192 16.0128C105.068 16.0426 104.918 16.0607 104.741 16.0671C104.413 16.0799 104.125 16.0362 103.878 15.9361C103.633 15.8359 103.442 15.6804 103.306 15.4695C103.17 15.2585 103.103 14.9922 103.105 14.6705V9.91477ZM108.461 16.0959C107.956 16.0959 107.522 15.9936 107.157 15.7891C106.795 15.5824 106.516 15.2905 106.32 14.9134C106.124 14.5341 106.026 14.0856 106.026 13.5678C106.026 13.0629 106.124 12.6197 106.32 12.2383C106.516 11.8569 106.792 11.5597 107.148 11.3466C107.506 11.1335 107.925 11.027 108.407 11.027C108.731 11.027 109.032 11.0792 109.311 11.1836C109.593 11.2859 109.838 11.4403 110.046 11.647C110.257 11.8537 110.421 12.1136 110.539 12.4268C110.656 12.7379 110.714 13.1023 110.714 13.5199V13.8938H106.569V13.0501H109.433C109.433 12.854 109.39 12.6804 109.305 12.5291C109.22 12.3778 109.101 12.2596 108.95 12.1744C108.801 12.087 108.627 12.0433 108.429 12.0433C108.223 12.0433 108.039 12.0913 107.88 12.1871C107.722 12.2809 107.598 12.4077 107.509 12.5675C107.419 12.7251 107.373 12.9009 107.371 13.0948V13.897C107.371 14.1399 107.416 14.3498 107.506 14.5266C107.597 14.7035 107.726 14.8398 107.892 14.9357C108.059 15.0316 108.256 15.0795 108.484 15.0795C108.635 15.0795 108.773 15.0582 108.899 15.0156C109.025 14.973 109.132 14.9091 109.222 14.8239C109.311 14.7386 109.38 14.6342 109.426 14.5107L110.686 14.5938C110.622 14.8963 110.491 15.1605 110.293 15.3864C110.097 15.6101 109.843 15.7848 109.532 15.9105C109.223 16.0341 108.866 16.0959 108.461 16.0959ZM111.603 16V11.0909H112.923V11.9474H112.974C113.063 11.6428 113.214 11.4126 113.425 11.2571C113.636 11.0994 113.878 11.0206 114.153 11.0206C114.222 11.0206 114.295 11.0249 114.374 11.0334C114.453 11.0419 114.522 11.0536 114.582 11.0685V12.2766C114.518 12.2575 114.429 12.2404 114.316 12.2255C114.203 12.2106 114.1 12.2031 114.006 12.2031C113.806 12.2031 113.627 12.2468 113.469 12.3342C113.314 12.4194 113.19 12.5387 113.099 12.6921C113.009 12.8455 112.964 13.0224 112.964 13.2227V16H111.603ZM118.172 11.0909V12.1136H115.142V11.0909H118.172ZM115.835 16V10.7362C115.835 10.3803 115.904 10.0852 116.043 9.85085C116.184 9.61648 116.375 9.4407 116.618 9.32351C116.861 9.20632 117.137 9.14773 117.446 9.14773C117.655 9.14773 117.846 9.16371 118.018 9.19567C118.193 9.22763 118.323 9.25639 118.408 9.28196L118.165 10.3047C118.112 10.2876 118.046 10.2717 117.967 10.2567C117.89 10.2418 117.811 10.2344 117.73 10.2344C117.53 10.2344 117.391 10.2812 117.312 10.375C117.233 10.4666 117.194 10.5955 117.194 10.7617V16H115.835ZM119.003 16V11.0909H120.323V11.9474H120.374C120.464 11.6428 120.614 11.4126 120.825 11.2571C121.036 11.0994 121.279 11.0206 121.554 11.0206C121.622 11.0206 121.695 11.0249 121.774 11.0334C121.853 11.0419 121.922 11.0536 121.982 11.0685V12.2766C121.918 12.2575 121.83 12.2404 121.717 12.2255C121.604 12.2106 121.5 12.2031 121.407 12.2031C121.206 12.2031 121.027 12.2468 120.87 12.3342C120.714 12.4194 120.591 12.5387 120.499 12.6921C120.41 12.8455 120.365 13.0224 120.365 13.2227V16H119.003ZM123.945 16.0927C123.632 16.0927 123.353 16.0384 123.108 15.9297C122.863 15.8189 122.669 15.6559 122.526 15.4407C122.385 15.2234 122.315 14.9528 122.315 14.6289C122.315 14.3562 122.365 14.1271 122.465 13.9418C122.566 13.7564 122.702 13.6072 122.874 13.4943C123.047 13.3814 123.243 13.2962 123.463 13.2386C123.684 13.1811 123.916 13.1406 124.159 13.1172C124.445 13.0874 124.675 13.0597 124.85 13.0341C125.024 13.0064 125.151 12.9659 125.23 12.9126C125.309 12.8594 125.348 12.7805 125.348 12.6761V12.657C125.348 12.4545 125.284 12.2979 125.156 12.1871C125.031 12.0763 124.852 12.021 124.619 12.021C124.374 12.021 124.18 12.0753 124.035 12.1839C123.89 12.2905 123.794 12.4247 123.747 12.5866L122.488 12.4844C122.552 12.1861 122.677 11.9283 122.865 11.7109C123.052 11.4915 123.294 11.3232 123.59 11.206C123.889 11.0866 124.234 11.027 124.626 11.027C124.899 11.027 125.16 11.0589 125.409 11.1229C125.66 11.1868 125.883 11.2859 126.077 11.4201C126.273 11.5543 126.427 11.7269 126.54 11.9379C126.653 12.1467 126.71 12.397 126.71 12.6889V16H125.419V15.3192H125.38C125.301 15.4727 125.196 15.608 125.064 15.7251C124.932 15.8402 124.773 15.9308 124.588 15.9968C124.402 16.0607 124.188 16.0927 123.945 16.0927ZM124.335 15.1531C124.535 15.1531 124.712 15.1136 124.866 15.0348C125.019 14.9538 125.139 14.8452 125.227 14.7088C125.314 14.5724 125.358 14.418 125.358 14.2454V13.7244C125.315 13.7521 125.257 13.7777 125.182 13.8011C125.11 13.8224 125.028 13.8427 124.936 13.8619C124.844 13.8789 124.753 13.8949 124.661 13.9098C124.569 13.9226 124.486 13.9343 124.412 13.945C124.252 13.9684 124.112 14.0057 123.993 14.0568C123.874 14.108 123.781 14.1772 123.715 14.2646C123.649 14.3498 123.616 14.4563 123.616 14.5842C123.616 14.7695 123.683 14.9112 123.817 15.0092C123.954 15.1051 124.126 15.1531 124.335 15.1531ZM130.914 13.9098V11.0909H132.276V16H130.968V15.1083H130.917C130.806 15.396 130.622 15.6271 130.364 15.8018C130.109 15.9766 129.797 16.0639 129.428 16.0639C129.1 16.0639 128.811 15.9893 128.562 15.8402C128.313 15.6911 128.118 15.479 127.977 15.2042C127.838 14.9293 127.768 14.6001 127.766 14.2166V11.0909H129.127V13.9737C129.13 14.2635 129.207 14.4925 129.361 14.6609C129.514 14.8292 129.72 14.9134 129.978 14.9134C130.142 14.9134 130.295 14.8761 130.438 14.8015C130.581 14.7248 130.696 14.6119 130.783 14.4627C130.873 14.3136 130.916 14.1293 130.914 13.9098Z" fill="black"/>
<path id="Beer later?" d="M49.7926 29V22.4545H52.081C52.5369 22.4545 52.913 22.5334 53.2092 22.6911C53.5053 22.8466 53.7259 23.0565 53.8707 23.3207C54.0156 23.5827 54.0881 23.8736 54.0881 24.1932C54.0881 24.4744 54.038 24.7067 53.9379 24.8899C53.8398 25.0732 53.7099 25.218 53.5479 25.3246C53.3881 25.4311 53.2145 25.5099 53.027 25.5611V25.625C53.2273 25.6378 53.4286 25.7081 53.631 25.8359C53.8335 25.9638 54.0028 26.147 54.1392 26.3857C54.2756 26.6243 54.3438 26.9162 54.3438 27.2614C54.3438 27.5895 54.2692 27.8846 54.12 28.1467C53.9709 28.4087 53.7354 28.6165 53.4137 28.7699C53.092 28.9233 52.6733 29 52.1577 29H49.7926ZM50.5852 28.2969H52.1577C52.6754 28.2969 53.043 28.1967 53.2603 27.9964C53.4798 27.794 53.5895 27.549 53.5895 27.2614C53.5895 27.0398 53.533 26.8352 53.4201 26.6477C53.3072 26.4581 53.1463 26.3068 52.9375 26.1939C52.7287 26.0788 52.4815 26.0213 52.196 26.0213H50.5852V28.2969ZM50.5852 25.331H52.0554C52.294 25.331 52.5092 25.2841 52.701 25.1903C52.8949 25.0966 53.0483 24.9645 53.1612 24.794C53.2763 24.6236 53.3338 24.4233 53.3338 24.1932C53.3338 23.9055 53.2337 23.6616 53.0334 23.4613C52.8331 23.2589 52.5156 23.1577 52.081 23.1577H50.5852V25.331ZM57.6021 29.1023C57.1291 29.1023 56.7211 28.9979 56.378 28.7891C56.0371 28.5781 55.774 28.2841 55.5886 27.907C55.4054 27.5277 55.3137 27.0866 55.3137 26.5838C55.3137 26.081 55.4054 25.6378 55.5886 25.2543C55.774 24.8686 56.0318 24.5682 56.362 24.353C56.6944 24.1357 57.0822 24.027 57.5254 24.027C57.7811 24.027 58.0336 24.0696 58.2828 24.1548C58.5321 24.2401 58.7591 24.3786 58.9636 24.5703C59.1681 24.7599 59.3311 25.0114 59.4526 25.3246C59.574 25.6378 59.6348 26.0234 59.6348 26.4815V26.8011H55.8507V26.1491H58.8677C58.8677 25.8722 58.8123 25.625 58.7015 25.4077C58.5929 25.1903 58.4373 25.0188 58.2349 24.8931C58.0346 24.7674 57.7981 24.7045 57.5254 24.7045C57.225 24.7045 56.965 24.7791 56.7456 24.9283C56.5282 25.0753 56.361 25.267 56.2438 25.5036C56.1266 25.7401 56.068 25.9936 56.068 26.2642V26.6989C56.068 27.0696 56.1319 27.3839 56.2598 27.6417C56.3897 27.8974 56.5698 28.0923 56.7999 28.2266C57.03 28.3587 57.2974 28.4247 57.6021 28.4247C57.8002 28.4247 57.9792 28.397 58.139 28.3416C58.301 28.2841 58.4405 28.1989 58.5577 28.0859C58.6749 27.9709 58.7654 27.8281 58.8294 27.6577L59.5581 27.8622C59.4814 28.1094 59.3525 28.3267 59.1713 28.5142C58.9902 28.6996 58.7665 28.8445 58.5002 28.9489C58.2338 29.0511 57.9345 29.1023 57.6021 29.1023ZM62.8404 29.1023C62.3674 29.1023 61.9593 28.9979 61.6163 28.7891C61.2754 28.5781 61.0123 28.2841 60.8269 27.907C60.6436 27.5277 60.552 27.0866 60.552 26.5838C60.552 26.081 60.6436 25.6378 60.8269 25.2543C61.0123 24.8686 61.2701 24.5682 61.6003 24.353C61.9327 24.1357 62.3205 24.027 62.7637 24.027C63.0194 24.027 63.2718 24.0696 63.5211 24.1548C63.7704 24.2401 63.9973 24.3786 64.2019 24.5703C64.4064 24.7599 64.5694 25.0114 64.6909 25.3246C64.8123 25.6378 64.873 26.0234 64.873 26.4815V26.8011H61.089V26.1491H64.106C64.106 25.8722 64.0506 25.625 63.9398 25.4077C63.8311 25.1903 63.6756 25.0188 63.4732 24.8931C63.2729 24.7674 63.0364 24.7045 62.7637 24.7045C62.4632 24.7045 62.2033 24.7791 61.9838 24.9283C61.7665 25.0753 61.5993 25.267 61.4821 25.5036C61.3649 25.7401 61.3063 25.9936 61.3063 26.2642V26.6989C61.3063 27.0696 61.3702 27.3839 61.498 27.6417C61.628 27.8974 61.8081 28.0923 62.0382 28.2266C62.2683 28.3587 62.5357 28.4247 62.8404 28.4247C63.0385 28.4247 63.2175 28.397 63.3773 28.3416C63.5392 28.2841 63.6788 28.1989 63.796 28.0859C63.9132 27.9709 64.0037 27.8281 64.0676 27.6577L64.7963 27.8622C64.7196 28.1094 64.5907 28.3267 64.4096 28.5142C64.2285 28.6996 64.0048 28.8445 63.7385 28.9489C63.4721 29.0511 63.1728 29.1023 62.8404 29.1023ZM66.0204 29V24.0909H66.7491V24.8324H66.8002C66.8897 24.5895 67.0517 24.3924 67.286 24.2411C67.5204 24.0898 67.7846 24.0142 68.0787 24.0142C68.1341 24.0142 68.2033 24.0153 68.2864 24.0174C68.3695 24.0195 68.4324 24.0227 68.475 24.027V24.794C68.4494 24.7876 68.3908 24.7781 68.2992 24.7653C68.2097 24.7504 68.1149 24.7429 68.0147 24.7429C67.7761 24.7429 67.563 24.793 67.3755 24.8931C67.1902 24.9911 67.0431 25.1275 66.9345 25.3022C66.8279 25.4748 66.7747 25.6719 66.7747 25.8935V29H66.0204ZM72.6546 22.4545V29H71.9003V22.4545H72.6546ZM75.4806 29.1151C75.1696 29.1151 74.8873 29.0565 74.6337 28.9393C74.3801 28.82 74.1788 28.6484 74.0297 28.4247C73.8805 28.1989 73.8059 27.9261 73.8059 27.6065C73.8059 27.3253 73.8613 27.0973 73.9721 26.9226C74.0829 26.7457 74.231 26.6072 74.4164 26.5071C74.6017 26.407 74.8063 26.3324 75.03 26.2834C75.2559 26.2322 75.4828 26.1918 75.7108 26.1619C76.0091 26.1236 76.2509 26.0948 76.4363 26.0756C76.6238 26.0543 76.7601 26.0192 76.8453 25.9702C76.9327 25.9212 76.9764 25.8359 76.9764 25.7145V25.6889C76.9764 25.3736 76.8901 25.1286 76.7175 24.9538C76.5471 24.7791 76.2882 24.6918 75.9409 24.6918C75.5808 24.6918 75.2985 24.7706 75.0939 24.9283C74.8894 25.0859 74.7456 25.2543 74.6625 25.4332L73.9466 25.1776C74.0744 24.8793 74.2449 24.647 74.4579 24.4808C74.6731 24.3125 74.9075 24.1953 75.161 24.1293C75.4167 24.0611 75.6681 24.027 75.9153 24.027C76.073 24.027 76.2541 24.0462 76.4586 24.0845C76.6653 24.1207 76.8645 24.1964 77.0563 24.3114C77.2502 24.4265 77.411 24.6001 77.5389 24.8324C77.6667 25.0646 77.7306 25.3757 77.7306 25.7656V29H76.9764V28.3352H76.938C76.8869 28.4418 76.8017 28.5558 76.6824 28.6772C76.563 28.7987 76.4043 28.902 76.2061 28.9872C76.008 29.0724 75.7662 29.1151 75.4806 29.1151ZM75.5957 28.4375C75.894 28.4375 76.1454 28.3789 76.35 28.2617C76.5566 28.1445 76.7122 27.9933 76.8166 27.8079C76.9231 27.6225 76.9764 27.4276 76.9764 27.223V26.5327C76.9444 26.571 76.8741 26.6062 76.7654 26.6381C76.6589 26.668 76.5353 26.6946 76.3947 26.718C76.2562 26.7393 76.1209 26.7585 75.9888 26.7756C75.8588 26.7905 75.7534 26.8033 75.6724 26.8139C75.4764 26.8395 75.2931 26.881 75.1227 26.9386C74.9544 26.994 74.818 27.0781 74.7136 27.1911C74.6113 27.3018 74.5602 27.4531 74.5602 27.6449C74.5602 27.907 74.6571 28.1051 74.851 28.2393C75.0471 28.3714 75.2953 28.4375 75.5957 28.4375ZM81.2423 24.0909V24.7301H78.6982V24.0909H81.2423ZM79.4397 22.9148H80.194V27.5938C80.194 27.8068 80.2249 27.9666 80.2867 28.0732C80.3506 28.1776 80.4316 28.2479 80.5296 28.2841C80.6297 28.3182 80.7352 28.3352 80.846 28.3352C80.9291 28.3352 80.9972 28.331 81.0505 28.3224C81.1038 28.3118 81.1464 28.3033 81.1784 28.2969L81.3318 28.9744C81.2806 28.9936 81.2093 29.0128 81.1176 29.032C81.026 29.0533 80.9099 29.0639 80.7693 29.0639C80.5562 29.0639 80.3474 29.0181 80.1428 28.9265C79.9404 28.8349 79.7721 28.6953 79.6379 28.5078C79.5058 28.3203 79.4397 28.0838 79.4397 27.7983V22.9148ZM84.3824 29.1023C83.9094 29.1023 83.5013 28.9979 83.1583 28.7891C82.8174 28.5781 82.5542 28.2841 82.3689 27.907C82.1856 27.5277 82.094 27.0866 82.094 26.5838C82.094 26.081 82.1856 25.6378 82.3689 25.2543C82.5542 24.8686 82.8121 24.5682 83.1423 24.353C83.4747 24.1357 83.8625 24.027 84.3057 24.027C84.5613 24.027 84.8138 24.0696 85.0631 24.1548C85.3124 24.2401 85.5393 24.3786 85.7439 24.5703C85.9484 24.7599 86.1114 25.0114 86.2329 25.3246C86.3543 25.6378 86.415 26.0234 86.415 26.4815V26.8011H82.6309V26.1491H85.648C85.648 25.8722 85.5926 25.625 85.4818 25.4077C85.3731 25.1903 85.2176 25.0188 85.0152 24.8931C84.8149 24.7674 84.5784 24.7045 84.3057 24.7045C84.0052 24.7045 83.7453 24.7791 83.5258 24.9283C83.3085 25.0753 83.1412 25.267 83.0241 25.5036C82.9069 25.7401 82.8483 25.9936 82.8483 26.2642V26.6989C82.8483 27.0696 82.9122 27.3839 83.04 27.6417C83.17 27.8974 83.3501 28.0923 83.5802 28.2266C83.8103 28.3587 84.0777 28.4247 84.3824 28.4247C84.5805 28.4247 84.7595 28.397 84.9193 28.3416C85.0812 28.2841 85.2208 28.1989 85.338 28.0859C85.4552 27.9709 85.5457 27.8281 85.6096 27.6577L86.3383 27.8622C86.2616 28.1094 86.1327 28.3267 85.9516 28.5142C85.7705 28.6996 85.5468 28.8445 85.2805 28.9489C85.0141 29.0511 84.7148 29.1023 84.3824 29.1023ZM87.5624 29V24.0909H88.2911V24.8324H88.3422C88.4317 24.5895 88.5937 24.3924 88.828 24.2411C89.0624 24.0898 89.3266 24.0142 89.6207 24.0142C89.676 24.0142 89.7453 24.0153 89.8284 24.0174C89.9115 24.0195 89.9743 24.0227 90.017 24.027V24.794C89.9914 24.7876 89.9328 24.7781 89.8412 24.7653C89.7517 24.7504 89.6569 24.7429 89.5567 24.7429C89.3181 24.7429 89.105 24.793 88.9175 24.8931C88.7322 24.9911 88.5851 25.1275 88.4765 25.3022C88.3699 25.4748 88.3167 25.6719 88.3167 25.8935V29H87.5624ZM91.8954 27.1591V27.1207C91.8997 26.7138 91.9423 26.3899 92.0233 26.1491C92.1042 25.9084 92.2193 25.7134 92.3684 25.5643C92.5176 25.4151 92.6966 25.2777 92.9054 25.152C93.0311 25.0753 93.144 24.9847 93.2441 24.8803C93.3443 24.7738 93.4231 24.6513 93.4806 24.5128C93.5403 24.3743 93.5701 24.2209 93.5701 24.0526C93.5701 23.8437 93.5211 23.6626 93.4231 23.5092C93.3251 23.3558 93.1941 23.2376 93.03 23.1545C92.8659 23.0714 92.6838 23.0298 92.4835 23.0298C92.3088 23.0298 92.1404 23.0661 91.9785 23.1385C91.8166 23.2109 91.6813 23.3249 91.5726 23.4805C91.464 23.636 91.4011 23.8395 91.3841 24.0909H90.5787C90.5957 23.7287 90.6895 23.4187 90.8599 23.1609C91.0325 22.9031 91.2594 22.706 91.5407 22.5696C91.824 22.4332 92.1383 22.3651 92.4835 22.3651C92.8585 22.3651 93.1845 22.4396 93.4615 22.5888C93.7406 22.7379 93.9558 22.9425 94.1071 23.2024C94.2605 23.4624 94.3372 23.7585 94.3372 24.0909C94.3372 24.3253 94.301 24.5373 94.2285 24.7269C94.1582 24.9165 94.0559 25.0859 93.9217 25.2351C93.7896 25.3842 93.6298 25.5163 93.4423 25.6314C93.2548 25.7486 93.1046 25.8722 92.9917 26.0021C92.8787 26.13 92.7967 26.2823 92.7456 26.4592C92.6944 26.636 92.6667 26.8565 92.6625 27.1207V27.1591H91.8954ZM92.3045 29.0511C92.1468 29.0511 92.0115 28.9947 91.8986 28.8817C91.7857 28.7688 91.7292 28.6335 91.7292 28.4759C91.7292 28.3182 91.7857 28.1829 91.8986 28.07C92.0115 27.957 92.1468 27.9006 92.3045 27.9006C92.4622 27.9006 92.5975 27.957 92.7104 28.07C92.8233 28.1829 92.8798 28.3182 92.8798 28.4759C92.8798 28.5803 92.8532 28.6761 92.7999 28.7635C92.7488 28.8509 92.6795 28.9212 92.5922 28.9744C92.5069 29.0256 92.411 29.0511 92.3045 29.0511Z" fill="black"/>
<rect id="Rectangle 4" x="12" y="7" width="25" height="25" rx="5" fill="#FAFAFA"/>
<g id="Logo">
<rect id="Rectangle 14" x="28" y="16" width="5" height="9" rx="2" fill="#5853BF"/>
<rect id="Rectangle 16" x="29" y="12" width="3" height="3" rx="1.5" fill="#5853BF"/>
<rect id="Rectangle 17" x="24" y="11" width="4" height="4" rx="2" fill="#856DE3"/>
<path id="Rectangle 13" d="M23 18C23 16.8954 23.8954 16 25 16H27C28.1046 16 29 16.8954 29 18V26C29 27.1046 28.1046 28 27 28H25C23.8954 28 23 27.1046 23 26V18Z" fill="#856DE3"/>
<rect id="Rectangle 15" x="17" y="15" width="9" height="9" fill="#5853BF"/>
</g>
</g>
</svg>
