<svg width="477" height="477" viewBox="0 0 477 477" fill="none" xmlns="http://www.w3.org/2000/svg">
<circle cx="238.5" cy="238.5" r="238.5" fill="white"/>
<path fill-rule="evenodd" clip-rule="evenodd" d="M307.274 350.324C322.561 340.685 335.69 327.937 345.775 312.967L344.677 314.066C344.677 314.066 330.167 301.462 319.482 302.835C306.928 304.448 298.177 313.199 296.564 325.753C295.36 335.124 304.909 347.439 307.274 350.324ZM367.798 240.615C367.751 169.134 309.79 111.202 238.298 111.202C166.777 111.202 108.798 169.181 108.798 240.702C108.798 308.752 161.286 364.543 227.985 369.798C209.619 335.77 190.095 286.171 209.446 253.812C220.244 235.754 229.397 226.368 247.541 215.716C281.791 195.609 334.76 220.563 367.798 240.615ZM290.341 281.89C290.118 290.101 283.679 296.54 275.468 296.764C264.373 297.066 256.389 278.506 264.236 270.659C272.084 262.811 290.643 270.796 290.341 281.89Z" fill="#777777"/>
</svg>
